<?xml version="1.0" encoding="utf-8"?>
<!-- Generator: Adobe Illustrator 16.0.0, SVG Export Plug-In . SVG Version: 6.00 Build 0)  -->
<!DOCTYPE svg PUBLIC "-//W3C//DTD SVG 1.1//EN" "http://www.w3.org/Graphics/SVG/1.1/DTD/svg11.dtd">
<svg version="1.1" xmlns="http://www.w3.org/2000/svg" xmlns:xlink="http://www.w3.org/1999/xlink" x="0px" y="0px"
	 width="549.471px" height="225.96px" viewBox="0 0 549.471 225.96" enable-background="new 0 0 549.471 225.96"
	 xml:space="preserve">
<g id="图层_1">
	
		<text transform="matrix(1 0 0 1 232.5361 125.7139)" fill="#FFFFFF" stroke="#5DB530" stroke-miterlimit="10" font-family="'Quicksand-Regular'" font-size="35.0104">我Happy Teacher’s Day</text>
	<g>
		<g>
			<path fill="#B75E1F" d="M223.27,56.541c0,0-10.163-12.551-27.482-7.623c0,0-16.659,13.037-26.081,34.703
				c0,0,11.097,53.042,14.098,54.477c0,0,3.202-3.627,6.884-8.225L223.27,56.541z"/>
		</g>
		<g>
			<path fill="#E6E6E5" d="M174.09,82.112l13.37,47.468c5.801-0.296,17.973,5.718,17.973,5.718l-6.17-49.893
				C199.263,85.405,185.904,74.572,174.09,82.112z"/>
		</g>
		<g>
			<path fill="#E2720E" d="M204.861,142.433c0,0,17.833-21.239,20.635-26.28c0,0,3.857-38.861-2.227-59.611
				c0,0-21.586,23.208-25.61,30.118C197.659,86.659,202.624,137.946,204.861,142.433z"/>
		</g>
		<g>
			<path fill="#FFFFFF" d="M220.956,59.05c0,0-3.966-4.251-11.802-6.424c-7.265-2.015-12.734-0.924-12.734-0.924l-22.33,30.41
				c12.992-6.329,24.532,3.055,24.532,3.055L220.956,59.05z"/>
		</g>
		<g>
			<path fill="#9F9E9F" d="M210.039,52.872c0,0-0.286,0.458-0.787,1.259c-0.519,0.789-1.226,1.938-2.134,3.276
				c-0.909,1.337-1.943,2.916-3.098,4.573c-1.146,1.664-2.399,3.417-3.65,5.172c-1.268,1.743-2.532,3.487-3.747,5.102
				c-1.205,1.622-2.376,3.102-3.356,4.388s-1.848,2.32-2.432,3.062c-0.601,0.729-0.945,1.145-0.945,1.145s0.286-0.458,0.787-1.259
				c0.519-0.789,1.225-1.939,2.133-3.277c0.909-1.337,1.942-2.917,3.098-4.574c1.146-1.664,2.4-3.417,3.651-5.171
				c1.268-1.742,2.533-3.486,3.748-5.101c1.207-1.621,2.376-3.102,3.356-4.388c0.981-1.285,1.848-2.321,2.432-3.062
				C209.696,53.288,210.039,52.872,210.039,52.872z"/>
		</g>
		<g>
			<path fill="#737373" d="M189.89,80.848c0,0,0.174,0.8,0.48,2.199c0.284,1.403,0.73,3.4,1.194,5.81
				c0.46,2.41,1.041,5.214,1.583,8.232c0.545,3.018,1.126,6.236,1.708,9.455c0.537,3.227,1.075,6.453,1.578,9.478
				c0.508,3.024,0.904,5.86,1.283,8.284c0.375,2.425,0.627,4.456,0.832,5.873c0.184,1.421,0.289,2.232,0.289,2.232
				s-0.175-0.8-0.48-2.199c-0.284-1.403-0.731-3.4-1.195-5.81c-0.46-2.41-1.042-5.213-1.583-8.232
				c-0.545-3.018-1.126-6.237-1.708-9.456c-0.537-3.227-1.074-6.453-1.578-9.478c-0.505-3.025-0.904-5.86-1.282-8.285
				c-0.375-2.425-0.628-4.456-0.833-5.872C189.995,81.66,189.89,80.848,189.89,80.848z"/>
		</g>
		<g>
			<polygon fill="#E7423F" points="191.478,90.004 179.401,88.461 185.872,92.621 181.574,94.739 192.479,95.778 			"/>
		</g>
	</g>
</g>
<g id="图层_2" opacity="0">
	<path fill="none" d="M238.047,99.374c0.484-0.221,0.073-1.194,1.094-0.476c2.848,2.003-1.037,12.199,1.165,14.83
		c2.185,2.61,10.335,2.013,13.45,1.889c-0.557-0.625-1.502-1.17-2.375-1.697"/>
	<path fill="none" stroke="#000000" stroke-width="9" stroke-miterlimit="10" d="M239.259,113.919
		c3.117,0.004,6.035-0.856,9.166-0.563c0.697-0.539-0.357-0.482-0.074-1.256"/>
	<path fill="none" stroke="#000000" stroke-width="9" stroke-miterlimit="10" d="M253.199,101.191
		c-0.612,4.246-1.126,19.466-1.241,27.737c0.594-1.734,0.965-3.511,1.241-5.313"/>
	<path fill="none" stroke="#000000" stroke-width="9" stroke-miterlimit="10" d="M239.866,99.979
		c-2.481,0.403-2.258,23.641-2.557,28.476c-0.49-1.591-0.417-4.083,0.133-6.051"/>
	<path fill="none" stroke="#000000" stroke-width="9" stroke-miterlimit="10" d="M259.866,108.464
		c6.734-4.311,17.8,10.079,10.774,16.227c-7.678,6.718-20.108-10.407-2.289-9.56"/>
	<path fill="none" stroke="#000000" stroke-width="9" stroke-miterlimit="10" d="M277.441,132.101
		c2.094-6.383-2.639-32.863,10.301-24.862c5.238,3.239,5.355,12.789,0.002,15.783c-5.822,3.257-11.086-1.583-8.485-7.285"/>
	<path fill="none" stroke="#000000" stroke-width="9" stroke-miterlimit="10" d="M298.653,131.495c0-8.587,0.242-16.92,0.698-25.363
		c8.314-0.411,15.712,0.784,14.454,10.817c-0.517,4.117-2.398,7.478-7.272,7.287c-5.036-0.198-5.794-4.356-7.879-7.893"/>
	<path fill="none" stroke="#000000" stroke-width="9" stroke-miterlimit="10" d="M316.229,105.434
		c1.227,3.535,3.275,10.835,5.289,15.576c2.621-4.305,4.115-9.871,6.725-13.739c-2.017,8.658-5.448,28.616-17.98,25.948
		c-0.567-2.06,0.18-3.382,1.725-4.755"/>
	<path fill="none" stroke="#000000" stroke-width="9" stroke-miterlimit="10" d="M339.866,101.191
		c-0.502-0.126-2.447-0.598-1.962-0.604c5.731-0.01,11.588,1.92,16.93,1.696c-1.405-0.922-3.05-1.796-4.666-2.304"/>
	<path fill="none" stroke="#000000" stroke-width="9" stroke-miterlimit="10" d="M345.32,104.222c0,7.46-1.228,19.52-0.621,28.326
		c0.405-1.542,0.487-3.104,0.621-4.689"/>
	<path fill="none" stroke="#000000" stroke-width="9" stroke-miterlimit="10" d="M354.411,113.919
		c5.182,0,10.689,0.549,15.664-0.682c1.079-8.116-12.517-5.583-15.523-1.016c-6.58,9.996,4.13,16.41,11.981,8.97"/>
	<path fill="none" stroke="#000000" stroke-width="9" stroke-miterlimit="10" d="M374.411,112.101
		c-0.38-0.604-0.877-1.112-1.15-1.695c7.999-1.644,13.125,8.791,6.47,13.679c-7.671,5.635-14.899-8.934,0.135-8.348"/>
	<path fill="none" stroke="#000000" stroke-width="9" stroke-miterlimit="10" d="M399.866,110.283
		c-4.51-5.616-12.675,1.526-12.153,7.272c0.512,5.64,9.145,9.939,12.759,4.849"/>
	<path fill="none" stroke="#000000" stroke-width="9" stroke-miterlimit="10" d="M404.108,98.768
		c2.112,6.762,0.605,19.144,0.605,27.722c-0.484-4.68,3.478-17.497,9.697-18.021c6.235-0.526,4.799,13.054,3.622,17.416
		c0.018-0.958-0.002-1.917,0.014-2.875"/>
	<path fill="none" stroke="#000000" stroke-width="9" stroke-miterlimit="10" d="M424.108,115.737
		c3.047,0.967,10.262,2.032,10.904-1.818c0.891-5.339-6.636-5.614-9.22-3.648c-11.118,8.459,4.087,22.846,11.042,13.345"/>
	<path fill="none" stroke="#000000" stroke-width="9" stroke-miterlimit="10" d="M442.896,106.646
		c0,6.072-0.138,12.036-0.605,17.999c0.034-4.086,4.808-17.065,9.091-14.362"/>
	<path fill="none" stroke="#000000" stroke-width="9" stroke-miterlimit="10" d="M457.441,98.768
		c0.494,4.415-1.538,9.168-4.665,12.116c0.858-0.944,1.482-2.017,2.24-3.025"/>
	<path fill="none" stroke="#000000" stroke-width="9" stroke-miterlimit="10" d="M469.563,110.283
		c-3.348,0.111-6.244-1.157-9.605-0.515c-1.207,5.594,1.609,5.972,5.863,7.893c1.504,5.339-8.164,7.724-8.379,2.925"/>
	<path fill="none" stroke="#000000" stroke-width="9" stroke-miterlimit="10" d="M481.684,101.798
		c-2.018,0.244-4.313,19.502-4.753,23.561c8.209-1.99,21.952-0.265,23.572-12.046c1.884-13.702-16.287-16.548-22.818-6.674
		c1.799-0.266,2.671-1.261,3.999-2.417"/>
	<path fill="none" stroke="#000000" stroke-width="9" stroke-miterlimit="10" d="M504.714,111.495
		c1.025-1.375,4.96-2.749,7.287-1.06c3.021,2.193,1.726,5.577,1.181,8.923c-1.213,7.463-7.979,10.604-11.557,1.833
		c2.382-4.018,8.444-7.247,11.574-4.848"/>
	<path fill="none" stroke="#000000" stroke-width="9" stroke-miterlimit="10" d="M518.653,106.646
		c-2.03,4.012,2.348,11.24,5.573,14.468c3.484-2.714,7.313-8.13,9.03-12.45c-5.155,6.742-7.284,20.68-16.281,23.696
		c0.791-1.137,1.76-1.385,2.89-2.077"/>
	
</g>
</svg>

