<?xml version="1.0" encoding="utf-8"?>
<!-- Generator: Adobe Illustrator 20.0.0, SVG Export Plug-In . SVG Version: 6.00 Build 0)  -->
<svg version="1.1" id="图层_2" xmlns="http://www.w3.org/2000/svg" xmlns:xlink="http://www.w3.org/1999/xlink" x="0px" y="0px"
	 viewBox="0 0 278.167 567.041" enable-background="new 0 0 278.167 567.041" xml:space="preserve">
<g id="XMLID_1_">
	<g>
		<path fill="#163E8E" d="M277.92,213.649l-22.5,19.7l-78.5,10.16l-14.11,1.82c0.13-1.06,0.26-2.12,0.38-3.18l89.23-12.97
			l20.16-18.67C273.08,210.679,277.92,213.649,277.92,213.649z"/>
		<path fill="#2F93C3" d="M272.58,210.509l-20.16,18.67l-89.23,12.97c0.94-8.33,1.41-16.24,1.63-23.11l1.6-1.39
			c0.47-0.41,4.83,0,4.83,0l2.17,9.86c0,0,54-16.66,54.66-17C228.75,210.179,272.08,210.349,272.58,210.509z"/>
		<path fill="#1A090F" d="M253.75,428.629v12.9c0,3.99-2.09,7.62-5.41,9.82c-2.09,1.38-3.53,2.92-4.47,4.53
			c-0.05,0.08-0.11,0.18-0.18,0.3c-1.84,2.87-10.94,17.27-10.94,19.67c-13-6.84-35.3,8.83-35.3,8.83s-3.64,18.84-4.34,22.37
			c0.03-0.2,0.08-0.46,0.14-0.78c0.99-5.24-19.25-15.43-33.02-21.7l42.35-17.39c8.84-3.5,48.6-47.96,48.6-47.96
			C252.86,422.059,253.75,425.299,253.75,428.629z"/>
		<path fill="#291818" d="M193.03,507.469c0.01-0.03,0.01-0.07,0.02-0.11c0.02-0.07,0.04-0.16,0.05-0.26
			c-0.02,0.1-0.04,0.19-0.05,0.26C193.04,507.409,193.03,507.439,193.03,507.469z M179.69,509.499c0.16,0.14,0.24,0.21,0.23,0.18
			C179.91,509.659,179.83,509.599,179.69,509.499z M179.68,509.489c-2.78-2.54-29.05-29.05-31.78-30.3
			c0.46,0.19,5.63,2.32,12.33,5.38c13.77,6.27,34.01,16.46,33.02,21.7c-0.06,0.32-0.11,0.58-0.14,0.78
			c0.7-3.53,4.34-22.37,4.34-22.37s22.3-15.67,35.3-8.83c0-2.4,9.1-16.8,10.94-19.67c-3.92,7.24,1.92,15.91,4.71,19.42
			c0.87,1.09,1.34,2.43,1.33,3.82c-0.06,5.53-0.18,19.41,0.02,20.01c0.25,0.75-28,23-28.75,23.75c-0.19,0.19-1.91,0.76-4.42,1.48
			c-7.31,2.09-21.28,5.49-23.33,4.77c-18,4.25-35.34-6.75-36.75-7.5c-19.23-27.4-11.19-31.69-10.54-31.99
			C146.28,490.449,176.67,507.469,179.68,509.489z M193.01,507.589c0-0.01,0-0.03,0.01-0.06
			C193.01,507.549,193.01,507.579,193.01,507.589z"/>
		<path fill="#321E1F" d="M147.9,479.189c2.73,1.25,29,27.76,31.78,30.3c-3.01-2.02-33.4-19.04-33.72-19.55
			c0.03,0,0.04-0.01,0.04-0.01s-8.7-11.14-10.23-10.67c8.35-2.58,18.82-5.58,31.98-9.08l53.75-36.5l20.89-25.05l6.79,7.81
			c0.76,0.87,1.43,1.8,2,2.78c0,0-39.76,44.46-48.6,47.96l-42.35,17.39C153.53,481.509,148.36,479.379,147.9,479.189z"/>
		<path fill="#B7A661" d="M94.91,452.099c-3.71-19.45-8.04-39.83-10.66-44.59l-2.57-82.85l-0.56-18.15v-39.31l10.83-20.89v68.87
			l3.05,41.23l1.54,20.79l2.03,27.48l9.44,32.19l6.24,21.31c0,0,12.72-4.12,23.3-7.54c0.01,0,0.02,0,0.02,0
			c1.33-0.44,2.61-0.85,3.84-1.24v-0.01c5.51-1.77,9.76-3.13,10.09-3.21c0.15-0.04,1.64-0.78,4.06-2.02
			c0.71-0.36,1.49-0.77,2.35-1.21c0.14-0.07,0.28-0.15,0.42-0.22c16.03-8.27,54.67-28.55,54.67-28.55
			c1.35-2.25,19.7-23.33,23.37-27.52c0.4-0.47,0.63-0.73,0.63-0.73l7,6v14.76l-1.61,1.94l-20.89,25.05l-53.75,36.5
			c-13.16,3.5-23.63,6.5-31.98,9.08c-34.6,10.68-32.58,13.97-33.85,14.17c-1.52,0.24-0.13-2.05-0.01-2.24
			c0.01-0.01,0.01-0.01,0.01-0.01S98.74,472.129,94.91,452.099z"/>
		<path fill="#1F1809" d="M241.25,554.179c0,0,2.75,9-5.75,12c-18.04,3-26.43-6-26.43-6l-15.82-8v-10.75h1.51
			c0.74,0,12.63,10,14.31,12.75l25.93-3.25l0.4-0.61L241.25,554.179z"/>
		<path fill="#746B81" d="M235.4,550.319l-0.4,0.61l-25.93,3.25c-1.68-2.75-13.57-12.75-14.31-12.75h-1.51v-5h1.51
			c0,0,14.24,12.25,14.24,14.5l21.02-4.16L235.4,550.319z"/>
		<path fill="#17110A" d="M224.19,542.919l5.83,3.85l-21.02,4.16c0-2.25-14.24-14.5-14.24-14.5h-1.51v-7
			c2.05,0.72,16.02-2.68,23.33-4.77l0.73,11.77L224.19,542.919z"/>
		<path fill="#585A64" d="M236.37,386.659c-3.67,4.19-22.02,25.27-23.37,27.52c0,0-38.64,20.28-54.67,28.55
			c4.22-2.33,4.92-5.3,4.92-5.3s3-14.25-12-16.5s-15.48,9.67-15.48,9.67s-2.15,13.53,19.79,13.56c-2.42,1.24-3.91,1.98-4.06,2.02
			c-0.33,0.08-4.58,1.44-10.09,3.21l-1.66-3.71c0,0-12.25,2.5-15.86-14.75s20.36-18.46,20.36-18.46s-28-11.54-35.25,13.71
			c0,0-0.66,2.67-0.42,6.48c0.08,1.33,0.3,2.62,0.63,3.86l-1.2,0.35l-9.44-32.19l-2.03-27.48c1.46-0.27,6.96,0,6.96,0
			s4.64-14.88,18.69-7.32c0,1.3,5.06,22.92-15.44,15.86c0,0-8.25-2.81-3.5,5.19c0,0,11.33,12.75,24.41,11.25
			c13.09-1.5,27.34-25.75,27.34-25.75s5.5-18.02-18-27.01l-1.98-1.24l0.75-2c0,0,7.52-7.59-0.75-16.79l-0.59-0.22l5.88-15.76v-0.01
			l3.44-9.22c6.46-9.33,10.99-20.83,14.15-32.84h0.01c0,0,0.96,2.21,3.18,6.5C168.52,292.259,190.03,330.179,236.37,386.659z"/>
		<path fill="#E6DAE7" d="M200.58,148.349l2,13.29c-0.35,1.33-0.78,2.45-1.29,3.39l-0.01,0.01c-0.13,0.26-0.27,0.51-0.42,0.75
			c0,0.02-0.02,0.04-0.03,0.05c-1.81,2.24-6.4,0.64-7.91,0.64c-7.67-17.71-26-31.55-26-31.55v-6.29c0,0-15.34-1.46-17.35-1.03
			l-0.44-8.43l5-2.67l7.64,3l-3.09,5.34h12.74v2.5c0,0,5.33-2.5,5.83-2.5c0.4,0,14.94,10.56,20.86,14.86
			c1.52,1.11,2.47,1.8,2.47,1.8V148.349z"/>
		<path fill="#B7A78A" d="M192.92,166.479c1.51,0,6.1,1.6,7.91-0.64c-3.94,6.17-10.91,3.34-10.91,3.34
			c-17.67-28.67-26.67-29.47-26.67-29.47v-5.09h-13.08l-2.29-3.83l-0.01-0.02l1.7-3.16c2.01-0.43,17.35,1.03,17.35,1.03v6.29
			C166.92,134.929,185.25,148.769,192.92,166.479z"/>
		<path fill="#2163A7" d="M176.92,252.139l16.99,25.36c-0.61-0.17-20-5.83-20.83-6.15c-0.83-0.34-11.34,6.16-11.34,6.16l-0.65,0.33
			c-2.22-4.29-3.18-6.5-3.18-6.5h-0.01c2.27-8.61,3.84-17.49,4.91-26.01l14.11-1.82V252.139z"/>
		<path fill="#49382D" d="M164.82,219.039c-0.22,6.87-0.69,14.78-1.63,23.11c-0.12,1.06-0.25,2.12-0.38,3.18
			c-1.07,8.52-2.64,17.4-4.91,26.01c-3.16,12.01-7.69,23.51-14.15,32.84l-3.44,9.22c2.23-11.2,1.09-22.85-3.51-33.3
			c-4.79-10.88-11.35-21.97-15.52-28.65c-2.47-3.95-4.43-8.19-5.77-12.65c-6.06-20.14-19.26-47.93-19.26-47.93
			c2.82-6.78,13.54-32.02,13.54-32.02s13.47-3.97,24.19-20.92c0,0,6.85-6.24,13.89-7.16l0.01,0.02c0.12,0.37,2.18,6.31,2.29,6.31
			c0.02-0.02,0.51-0.12,1.31-0.27c3.31-0.66,11.77-2.21,11.77-2.21l-2.58,7.23c0,0,19.25,10.91,29.25,27.33l-13.54,25.67h-11.8
			C164.58,194.849,165.27,204.709,164.82,219.039z M157.08,187.679v-4.74c0,0-38.5-11.76-39-11.76s-20.19,20.09-19.83,22.67
			c19.12,48,24.5,43.16,27,45.66s8.67,9.5,8.67,9.5s2.16,18.84,4.83,18.17c2.67-0.67,5.83-9.17,5.83-9.17
			c12.17-20.5-2.5-49.5-2.5-49.5s-9.16-10.83-18.19-14.66c-9.03-3.84-6.52-5.84-6.52-5.84c-0.7-2.83,3.23-6.83,3.23-6.83
			L157.08,187.679z"/>
		<path fill="#5B5437" d="M198.11,139.709c-5.92-4.3-20.46-14.86-20.86-14.86c-0.5,0-5.83,2.5-5.83,2.5v-2.5h-12.74l3.09-5.34
			l-7.64-3c1.04-9,7.12-10,7.12-10c0.28-0.65,0.44-1.23,0.49-1.75l2.84,6.75C164.58,111.509,193.96,122.909,198.11,139.709z"/>
		<path fill="#352720" d="M189.92,169.179c-10-16.42-29.25-27.33-29.25-27.33l2.58-7.23v5.09
			C163.25,139.709,172.25,140.509,189.92,169.179z"/>
		<path fill="#313030" d="M164.58,194.849l4.67,20.34l-2.83,2.46l-1.6,1.39C165.27,204.709,164.58,194.849,164.58,194.849z"/>
		<path fill="#A69DA8" d="M151.25,420.929c15,2.25,12,16.5,12,16.5s-0.7,2.97-4.92,5.3c-0.14,0.07-0.28,0.15-0.42,0.22
			c-0.86,0.44-1.64,0.85-2.35,1.21c-21.94-0.03-19.79-13.56-19.79-13.56S136.25,418.679,151.25,420.929z"/>
		<path fill="#352720" d="M150.17,134.619h13.08c0,0-8.46,1.55-11.77,2.21L150.17,134.619z"/>
		<path fill="#B7A661" d="M153.25,100.029c0,0,9.06-0.43,8.49,4.73c-0.05,0.52-0.21,1.1-0.49,1.75c0,0-6.08,1-7.12,10l-5,2.67
			c-1.39-4.13,0.28-9.79,0.43-10.29c0-0.02,0.01-0.03,0.01-0.04C151.92,104.179,153.25,100.029,153.25,100.029z"/>
		<path fill="#362A1E" d="M158.25,32.509c0,0,3.83,4.84,0.83,12.34l0.17,12.16c0,0-5.12,3.34-2.5,7.17
			c-2.33,0.33-2.62,8.33-2.62,8.33v-9.5l-0.59-0.24l0.59-1.47l-11.38-11.87c0,0-8.17,4-11.71,7.63c2.29-23.8-14.5-40.71-14.5-40.71
			s-1.5-6.84-10.48-8.67c0,0,8.19-8.67,21.52,4c0,0-7.5-9.17-16.83-10.5c0.83-0.17,23.17-7.17,37.33,20c0,0,0.34-4-1.16-8.33
			c1.19,0.16,9,9,11.33,22.66V32.509z"/>
		<path fill="#885751" d="M156.75,64.179c0,0,4.33-1.33,0,10.17s-4.5,6.21-4.5,6.21l0.62-12.5v-3.63l0.67-1.66l0.59,0.24v9.5
			C154.13,72.509,154.42,64.509,156.75,64.179z"/>
		<path fill="#2B578C" d="M157.08,182.939v4.74l-36.48-6.5c0,0-3.93,4-3.23,6.83c0,0-2.51,2,6.52,5.84
			c9.03,3.83,18.19,14.66,18.19,14.66s14.67,29,2.5,49.5c0,0-3.16,8.5-5.83,9.17c-2.67,0.67-4.83-18.17-4.83-18.17s-6.17-7-8.67-9.5
			s-7.88,2.34-27-45.66c-0.36-2.58,19.33-22.67,19.83-22.67S157.08,182.939,157.08,182.939z M133.98,236.429
			c3.49-3-2.94-23.25-2.94-23.25c-7.96-1.75-21.25-22.31-21.25-22.31C105.58,210.069,133.98,236.429,133.98,236.429z"/>
		<path fill="#A69DA8" d="M130.64,326.049l0.97-0.02c1.21,3.42,1.95,5.48,1.95,5.48l0.87-2.34l0.59,0.22
			c8.27,9.2,0.75,16.79,0.75,16.79l-0.75,2l1.98,1.24c23.5,8.99,18,27.01,18,27.01s-14.25,24.25-27.34,25.75
			c-13.08,1.5-24.41-11.25-24.41-11.25c-4.75-8,3.5-5.19,3.5-5.19c20.5,7.06,15.44-14.56,15.44-15.86
			c-14.05-7.56-18.69,7.32-18.69,7.32s-5.5-0.27-6.96,0L95,356.409c9.75-15.02,28.89-9.98,28.89-9.98v-4c0,0-10.18,3.3-10.14-9.5
			C113.79,321.299,128.04,325.229,130.64,326.049z M132.75,374.429c4.75-12.5-1.71-15.25-2.75-16.5c-11.75-9-19.75-0.5-21,0
			c0,0,7.5,0.25,14.89,4s6.11,12.5,6.11,12.5H132.75z"/>
		<path fill="#EFCFC0" d="M142.75,49.429l11.38,11.87l-0.59,1.47l-0.67,1.66v3.63l-0.62,12.5c-0.5,1.29-1.01,2.5-1.52,3.66
			c0,0,0,0-0.01,0.01c-5.87,13.32-11.97,18.13-13.41,19.12c-0.19,0.14-0.42,0.21-0.66,0.21h-2.15c-0.32,0-0.64-0.12-0.88-0.33
			c-0.95-0.79-3.54-2.98-6.4-5.66v-0.01c-3.88-3.63-8.29-8.15-9.85-11.26c-0.29-0.59-0.57-1.29-0.83-2.09
			c-0.71-2.12-1.3-4.88-1.79-7.72c-0.01-0.04-0.02-0.09-0.03-0.15c-1.17-6.86-1.72-14.16-1.72-14.16h2.63l1.24-11.38l2.99,1.32
			l0.01,0.01l11.17,4.93C134.58,53.429,142.75,49.429,142.75,49.429z M149.13,70.559l-1.26-2.14l-10.12,2.76
			C138.5,71.299,149.13,70.559,149.13,70.559z M130.08,71.839l-0.85-0.29l-6.98-2.37l-5.02,0.77c0,0,1.28,1.99,1.78,1.83
			C119.51,71.629,130.08,71.839,130.08,71.839z"/>
		<path fill="#2D8B96" d="M151.57,90.079l1.68,9.95c0,0-1.33,4.15-3.68,8.82c0,0.01-0.01,0.02-0.01,0.04
			c-2.92,5.78-7.38,12.33-12.81,12.79l-3.19-5l-1.16-2.62l2.38-1.05l0.26-1.67c15.33-10.27,16.82-18.05,16.33-21.23L151.57,90.079z"
			/>
		<path fill="#352720" d="M150.17,134.619l1.31,2.21c-0.8,0.15-1.29,0.25-1.31,0.27c-0.11,0-2.17-5.94-2.29-6.31L150.17,134.619z"/>
		<path fill="#FCF7FB" d="M151.37,90.109c0.49,3.18-1,10.96-16.33,21.23l0.38-2.49c11.5-6.5,14.5-15.84,14.5-15.84
			s0.15-2.26,0.33-4.49l0.48,0.04C150.92,88.659,151.23,89.189,151.37,90.109z"/>
		<path fill="#A97365" d="M150.72,84.229c-0.12,0.31-0.3,2.28-0.47,4.29c-0.18,2.23-0.33,4.49-0.33,4.49s-3,9.34-14.5,15.84
			c0,0-7.71-8.56-8.2-11.28c2.86,2.68,5.45,4.87,6.4,5.66c0.24,0.21,0.56,0.33,0.88,0.33h2.15c0.24,0,0.47-0.07,0.66-0.21
			C138.75,102.359,144.85,97.549,150.72,84.229z"/>
		<path fill="#B7A661" d="M96.25,190.869c0,0,13.2,27.79,19.26,47.93c1.34,4.46,3.3,8.7,5.77,12.65
			c4.17,6.68,10.73,17.77,15.52,28.65c4.6,10.45,5.74,22.1,3.51,33.3v0.01l-5.88,15.76l-0.87,2.34c0,0,1.02-22.33,0.91-23.66
			c-0.11-1.34-12.22-33.67-12.73-34.67c-0.52-1-12.55-14.35-14.49-26.88c-1.95-12.52-17.1-48.43-17.67-50.45l6.67-25.07
			c3.44-7.33,7.33-15.43,7.33-15.43l2.43-3.41l0.01-0.01c30.66-36.48,37.73-27.74,37.73-27.74l1.5-5.01h3.88l0.44,8.43l-1.7,3.16
			c-7.04,0.92-13.89,7.16-13.89,7.16c-10.72,16.95-24.19,20.92-24.19,20.92S99.07,184.089,96.25,190.869z"/>
		<path fill="#3C2413" d="M147.87,68.419l1.26,2.14c0,0-10.63,0.74-11.38,0.62L147.87,68.419z"/>
		<path fill="#545132" d="M149.13,119.179h-3.88l-1.5,5.01c0,0-7.07-8.74-37.73,27.74l9.98-14l17.56-21.25l3.19,5
			c5.43-0.46,9.89-7.01,12.81-12.79C149.41,109.389,147.74,115.049,149.13,119.179z"/>
		<path fill="#A69DA8" d="M141.41,449.389v0.01c-1.23,0.39-2.51,0.8-3.84,1.24c0,0-0.01,0-0.02,0c-0.3,0.03-3.38,0.35-7.02,0.65
			c-9.88,0.84-18.85-5.55-21.32-14.77c-0.33-1.24-0.55-2.53-0.63-3.86c-0.24-3.81,0.42-6.48,0.42-6.48
			c7.25-25.25,35.25-13.71,35.25-13.71s-23.97,1.21-20.36,18.46s15.86,14.75,15.86,14.75L141.41,449.389z"/>
		<path fill="#585A64" d="M130.53,451.289c3.64-0.3,6.72-0.62,7.02-0.65c-10.58,3.42-23.3,7.54-23.3,7.54l-6.24-21.31l1.2-0.35
			C111.68,445.739,120.65,452.129,130.53,451.289z"/>
		<path fill="#E5DFE3" d="M106.52,93.309l-0.74-0.06l8.97-6.95h2.62c1.56,3.11,5.97,7.63,9.85,11.26v0.01
			c0.49,2.72,8.2,11.28,8.2,11.28l-0.38,2.49l-0.26,1.67l-2.38,1.05l-3.65,1.62l-9.67-6.83l2-3.84l-3.85-4.66l-1.31-6.34
			L106.52,93.309z"/>
		<path fill="#3D3223" d="M134.47,307.849c0.11,1.33-0.91,23.66-0.91,23.66s-0.74-2.06-1.95-5.48
			c-4.29-12.24-14.41-41.95-17.18-57.72c-0.3-1.74-1.03-3.36-2.11-4.76c-2.44-3.19-7.12-10.49-10.97-23.62
			c-1-3.4-1.94-7.2-2.77-11.41c-0.12-0.55-0.22-1.11-0.33-1.67l-6.3-22.53l-1.8-6.44c0-0.01,0-0.01,0-0.01l-0.57-2.02
			c0.57,2.02,15.72,37.93,17.67,50.45c1.94,12.53,13.97,25.88,14.49,26.88C122.25,274.179,134.36,306.509,134.47,307.849z"/>
		<path fill="#4397BF" d="M131.04,213.179c0,0,6.43,20.25,2.94,23.25c0,0-28.4-26.36-24.19-45.56
			C109.79,190.869,123.08,211.429,131.04,213.179z M114,200.929c2,9.25,16.08,22.25,16.08,22.25
			C129.07,212.789,114,200.929,114,200.929z"/>
		<path fill="#26324D" d="M132.4,114.059l1.16,2.62L116,137.929l-7-11.5l-2.3-3.77l-1.2-1.98c0,0-0.75-8.67-0.92-9.17
			c-0.02-0.05,0.04-0.12,0.15-0.19c0.95-0.61,6.02-1.81,6.02-1.81l8.33-0.66l9.67,6.83L132.4,114.059z"/>
		<path fill="#585A64" d="M130,357.929c1.04,1.25,7.5,4,2.75,16.5H130c0,0,1.28-8.75-6.11-12.5s-14.89-4-14.89-4
			C110.25,357.429,118.25,348.929,130,357.929z"/>
		<path fill="#585A64" d="M131.61,326.029l-0.97,0.02c-2.6-0.82-16.85-4.75-16.89,6.88c-0.04,12.8,10.14,9.5,10.14,9.5v4
			c0,0-19.14-5.04-28.89,9.98l-3.05-41.23v-68.87v-0.01l1.97-3.79l0.87-2.62l0.13,0.04c0.66,0,6.43,0,6.43,0
			c3.85,13.13,8.53,20.43,10.97,23.62c1.08,1.4,1.81,3.02,2.11,4.76C117.2,284.079,127.32,313.789,131.61,326.029z"/>
		<path fill="#2F391B" d="M116.54,16.349c0,0,16.79,16.91,14.5,40.71l-11.17-4.93l-0.01-0.01c-5.55-4.4-12.78-21.94-12.78-21.94
			s1-4-10-12C97.08,18.179,103.16,10.509,116.54,16.349z"/>
		<path fill="#3C2413" d="M129.23,71.549l0.85,0.29c0,0-10.57-0.21-11.07-0.06c-0.5,0.16-1.78-1.83-1.78-1.83l5.02-0.77
			L129.23,71.549z"/>
		<path fill="#7FC5D7" d="M130.08,223.179c0,0-14.08-13-16.08-22.25C114,200.929,129.07,212.789,130.08,223.179z"/>
		<path fill="#B7A661" d="M117.23,100.349l3.85,4.66l-2,3.84l-8.33,0.66c0,0-5.07,1.2-6.02,1.81l-1.48-2.47l3.27-7.41l8.23-0.76
			L117.23,100.349z"/>
		<path fill="#362A1E" d="M119.86,52.119l-2.99-1.32l-1.24,11.38H113c0,0,0.55,7.3,1.72,14.16c-0.45-1.73-3.97-9.16-3.97-9.16
			c-1.25-3.62-3.88-4-3.88-4l3.26-2.38c0,0,0.62-3.45-7.21-3.29l-3.67-5.83c0,0,5.67-6.83,12.67,0c0.8-0.67-3.5-5-8-7.5
			c0,0-7-3.67-8.34-8.17c0,0,3.5-6,11.5-5.83C107.08,30.179,114.31,47.719,119.86,52.119z"/>
		<path fill="#B7A661" d="M100.49,101.439l6.03-8.13l9.4,0.7l1.31,6.34l-2.48,0.33l-8.23,0.76l-3.27,7.41l1.48,2.47
			c-0.11,0.07-0.17,0.14-0.15,0.19c0.17,0.5,0.92,9.17,0.92,9.17l-0.75-0.82l-6.5-7.18v-0.17v-8.05L100.49,101.439z"/>
		<path fill="#885751" d="M116.54,84.209c0.03,0.12-4.98-1.15-6.54-5.91c-0.97-2.94-1.65-6.18-2.03-8.21
			c-0.21-1.15,0.49-2.27,1.62-2.59l1.16-0.32c0,0,3.52,7.43,3.97,9.16c0.01,0.06,0.02,0.11,0.03,0.15
			C115.24,79.329,115.83,82.089,116.54,84.209z"/>
		<path fill="#5B5437" d="M109,126.429l7,11.5l-9.98,14l-0.01,0.01l-2.43,3.41l-0.5-10.34l-3.84-5.3l-2.32-3.2l-0.5-7v-0.87
			C96.42,128.639,105.58,129.679,109,126.429z"/>
		<path fill="#53411D" d="M106.7,122.659l2.3,3.77c-3.42,3.25-12.58,2.21-12.58,2.21v-4.45
			C96.42,124.189,103.66,125.469,106.7,122.659z"/>
		<path fill="#53411D" d="M105.5,120.679l1.2,1.98c-3.04,2.81-10.28,1.53-10.28,1.53l-0.17-3.51h2l6.5-0.82L105.5,120.679z"/>
		<path fill="#EFCFC0" d="M106.52,93.309l-6.03,8.13l-2.24,3.02v8.05h-1.17c-7.66-8-2.83-10.33-2.83-10.33l11.53-8.93L106.52,93.309
			z"/>
		<polygon fill="#BCA182" points="98.25,112.679 104.75,119.859 98.25,120.679 		"/>
		<path fill="#CFC8AC" d="M103.08,145.009l0.5,10.34c0,0-3.89,8.1-7.33,15.43c-2.68,5.72-5.09,10.98-5.17,11.57
			c6.09-39.34,7.17-41.17,8.16-42.64L103.08,145.009z"/>
		<path fill="#1A090F" d="M64.69,506.759c-4.25-0.06-9.94-0.14-15.37-0.18v-0.31c0,0,14.26-3.42,12.39-8.09
			c-1.87-4.67-29.54-6.67-29.54-6.67l27.75-15.66h9c0,0,7-21.67,18.66-22l7.33-1.75c3.83,20.03,7.01,39.08,7.01,39.08s0,0-0.01,0.01
			l-29.24,15.08l-1.16,0.6c0,0-1.54-0.03-4.01-0.07C66.66,506.789,65.72,506.769,64.69,506.759z"/>
		<path fill="#26324D" d="M101.35,239.929c0,0-5.77,0-6.43,0l-0.13-0.04l3.78-11.37h0.01
			C99.41,232.729,100.35,236.529,101.35,239.929z"/>
		<path fill="#2D8B96" d="M96.92,136.509l2.32,3.2c-0.99,1.47-2.07,3.3-8.16,42.64c-0.09,0.76-3.85,0.65-7.08,0.42l0.22-7.84h2.03
			C87.14,140.459,96.92,136.509,96.92,136.509z"/>
		<path fill="#49382D" d="M34.65,332.289c-0.11-0.9-0.22-1.79-0.32-2.67c20.41-45.56,38.39-67.27,38.39-67.27
			c14.15-22.17,19.23-58.03,19.23-58.03l6.3,22.53c0.11,0.56,0.21,1.12,0.33,1.67h-0.01l-3.78,11.37l-0.87,2.62l-1.97,3.79v0.01
			l-10.83,20.89c-1.54,1.31-34.37,62.42-34.37,62.42s-3.29,6.89-1.89,6.89c1.39,0,14.01-1.66,14.01-1.66
			c-3.33,3.6-6.63,7.07-9.55,10.09c-5.98,6.2-10.4,10.57-10.4,10.57C37.84,354.249,35.95,342.729,34.65,332.289z"/>
		<path fill="#E6DAE7" d="M98.25,112.679v8h-2l0.17,3.51v4.45v0.87c-6.17,1.34-5.84,3.89-5.84,3.89l-2.83,1.22v-2.44
			c0,0,3.17-14.1,7.83-19.05c0.96-0.41,1.5-0.62,1.5-0.62h1.17V112.679z"/>
		<path fill="#E6DAE7" d="M96.42,129.509l0.5,7c0,0-9.78,3.95-10.67,38.42h-2.03l0.7-24.92l-38.17,13.34
			c1.09-16.14,13.75-28.88,26.1-37.57c-0.3,0.31,0.01,6.4,0.01,6.4h14.89v2.44l2.83-1.22C90.58,133.399,90.25,130.849,96.42,129.509
			z M80.25,146.009v-9.16l-13,5.5c-0.17,0.5-1.33,10.66-0.67,10.33C67.25,152.349,80.25,146.009,80.25,146.009z"/>
		<path fill="#49382D" d="M84,182.769c3.23,0.23,6.99,0.34,7.08-0.42c0.08-0.59,2.49-5.85,5.17-11.57l-6.67,25.07l0.57,2.02
			c0,0,0,0,0,0.01c-0.19,0.42-6,13.34-6,15.77c0.57,27.47-17.57,43.53-18.32,44.53l-1.35-0.79c3.6-4.25,5.1-7.04,5.1-7.04
			c5-16.84-1.33-27.17-1.33-27.17c-3-4.33-9.67-7-11.67-7.67c-0.71-0.24-1.3-1.08-1.76-2.06c-1.09-2.32-4.54-0.87-3.65,1.53
			c0.88,2.41,2.89,5,4.29,6.61c0.72,0.84,1.55,1.56,2.41,2.26c3.68,2.97,1.38,7,1.38,7c-3,5.66-18.67,20.16-18.67,20.16
			c-3.49,6.13-5.04,12.31-5.5,17.96l-1.73-0.14c2.71-34.63,9.15-71.65,9.15-71.65l13-28c8.51-4.01,25.89-12.17,25.62-11.67
			c-0.37,0.67-1.7,24.84-1.7,24.84S81.56,182.599,84,182.769z"/>
		<path fill="#1A090F" d="M94.91,452.099l-7.33,1.75c-11.66,0.33-18.66,22-18.66,22h-9l3.83-21.67c-16.01,5-31.58-8.5-31.58-8.5
			s31.08-13,35.33-28s13.62-93,13.62-93l0.56-0.02l2.57,82.85C86.87,412.269,91.2,432.649,94.91,452.099z"/>
		<path fill="#B7A661" d="M90.15,197.879l1.8,6.44c0,0-5.08,35.86-19.23,58.03c0,0-17.98,21.71-38.39,67.27
			c-0.62-5.39-1.05-10.21-1.06-12.77c0,0,0,0,0-0.01c0.31-2.04,31.81-57.66,32.56-58.66s18.89-17.06,18.32-44.53
			C84.15,211.219,89.96,198.299,90.15,197.879z"/>
		<path fill="#645C3B" d="M95.58,113.129c-4.66,4.95-7.83,19.05-7.83,19.05H72.86c0,0-0.31-6.09-0.01-6.4
			C82.52,118.979,92,114.659,95.58,113.129z"/>
		<path fill="#B7A78A" d="M84.92,150.009l-0.7,24.92l-0.22,7.84c-2.44-0.17-4.58-0.42-4.58-0.42s1.33-24.17,1.7-24.84
			c0.27-0.5-17.11,7.66-25.62,11.67c-2.75,1.3-4.58,2.17-4.58,2.17c-10.5-1-4.17-8-4.17-8L84.92,150.009z"/>
		<path fill="#1F1809" d="M82,515.969v3.89c0,2.58-1.99,4.72-4.56,4.9l-5.69,0.42l-6.38-5.25l-2.52,1.58l-1.14-1.83l5.79-12.81
			v-0.07c2.47,0.04,4.01,0.07,4.01,0.07l1.16-0.6l5.88,3.57C80.69,511.139,82,513.459,82,515.969z"/>
		<path fill="#2F1E1D" d="M81.12,306.509l0.56,18.15l-0.56,0.02c0,0-9.37,78-13.62,93s-35.33,28-35.33,28s15.57,13.5,31.58,8.5
			l-3.83,21.67l-27.75,15.66c0,0,27.67,2,29.54,6.67c1.87,4.67-12.39,8.09-12.39,8.09v0.31c-2.74-0.02-5.42-0.03-7.82-0.01
			c-4.96,0-8.71,0.08-9.33,0.28c-1.89,0.6-9.67-10.96-14.04-13.09l2.74-0.33l20.63-18.5l-19.75-6l-10.02-16.3l-11.48-18.7
			c0,0,2.25-31.5,2.25-33.25s9-9.75,9-9.75s20.49-51.6,23.15-58.64c1.3,10.44,3.19,21.96,4.27,23.22c0,0,4.42-4.37,10.4-10.57
			c-2.13,2.2-9.57,38.49-9.57,38.49s2.25,2.75,3,2.25s22.62-2.25,22.62-2.25l-1.29-31c-0.07-11.93-0.21-23.04-0.21-23.04
			C72.24,320.079,79.81,310.829,81.12,306.509z"/>
		<path fill="#231D18" d="M81.12,267.199v39.31c-1.31,4.32-8.88,13.57-17.25,22.88c-1.65,1.83-3.33,3.66-5,5.46
			c0,0-12.62,1.66-14.01,1.66c-1.4,0,1.89-6.89,1.89-6.89S79.58,268.509,81.12,267.199z"/>
		<path fill="#B7A78A" d="M80.25,136.849v9.16c0,0-13,6.34-13.67,6.67c-0.66,0.33,0.5-9.83,0.67-10.33L80.25,136.849z"/>
		<path fill="#31569E" d="M68.25,223.179c0,0,6.33,10.33,1.33,27.17c0,0-1.5,2.79-5.1,7.04c-3.61,4.25-9.31,9.95-17.73,15.79
			c0,0-7.5,14.67-7.83,19.33c0,0-4.91-10.31-3.84-23.54c0.46-5.65,2.01-11.83,5.5-17.96c0,0,15.67-14.5,18.67-20.16
			c0,0,2.3-4.03-1.38-7c-0.86-0.7-1.69-1.42-2.41-2.26c-1.4-1.61-3.41-4.2-4.29-6.61c-0.89-2.4,2.56-3.85,3.65-1.53
			c0.46,0.98,1.05,1.82,1.76,2.06C58.58,216.179,65.25,218.849,68.25,223.179z M55.58,257.359c4-3.18,10.12-15.18,7.56-26.18
			c-0.32-1.37,1.48,10.57-13.89,20.96c0,0-7.12,8.37-4.39,17.04C44.86,269.179,51.58,260.539,55.58,257.359z"/>
		<path fill="#746B81" d="M67.5,506.799v0.07l-5.79,12.81l-3.21-0.25l6.87-11l-21.2,19h-9.84l11.42-7.5l-17.17-5.82l4.69-2.63
			c0,0,14.48,4.2,15.98,6.45l15.44-11.17C65.72,506.769,66.66,506.789,67.5,506.799z"/>
		<path fill="#49382D" d="M64.48,257.389l1.35,0.79c-0.75,1-32.25,56.62-32.56,58.66c-0.01-1.1,0.07-1.79,0.23-1.91
			c-1.95-11.19-1.54-28.33-0.15-46.1l1.73,0.14c-1.07,13.23,3.84,23.54,3.84,23.54c0.33-4.66,7.83-19.33,7.83-19.33
			C55.17,267.339,60.87,261.639,64.48,257.389z"/>
		<path fill="#31569E" d="M64.08,352.429l1.29,31c0,0-21.87,1.75-22.62,2.25s-3-2.25-3-2.25s23.24-1.5,24-2.25
			C64.15,380.779,64.16,366.069,64.08,352.429z"/>
		<polygon fill="#1F1809" points="65.37,508.429 58.5,519.429 61.71,519.679 62.85,521.509 53.4,527.429 44.17,527.429 		"/>
		<path fill="#282332" d="M64.69,506.759l-15.44,11.17c-1.5-2.25-15.98-6.45-15.98-6.45l8.23-4.61v-0.3
			c2.4-0.02,5.08-0.01,7.82,0.01C54.75,506.619,60.44,506.699,64.69,506.759z"/>
		<path fill="#2A83BE" d="M64.08,352.429c0.08,13.64,0.07,28.35-0.33,28.75c-0.76,0.75-24,2.25-24,2.25s7.44-36.29,9.57-38.49
			c2.92-3.02,6.22-6.49,9.55-10.09c1.67-1.8,3.35-3.63,5-5.46C63.87,329.389,64.01,340.499,64.08,352.429z"/>
		<path fill="#46AAB0" d="M63.14,231.179c2.56,11-3.56,23-7.56,26.18c-4,3.18-10.72,11.82-10.72,11.82
			c-2.73-8.67,4.39-17.04,4.39-17.04C64.62,241.749,62.82,229.809,63.14,231.179z"/>
		<path fill="#1F1809" d="M45.75,519.929l-11.42,7.5H9c-6-4.25,0-9,0-9h11.87l7.7-4.32h0.01L45.75,519.929z"/>
		<path fill="#1A090F" d="M41.5,474.929l-20.63,18.5c4.3-23.08-11.32-36.62-11.32-36.62c1.3-2.42,2.33-3.95,2.18-4.18l10.02,16.3
			L41.5,474.929z"/>
		<path fill="#3D2229" d="M9.55,456.809c0,0,15.62,13.54,11.32,36.62l-2.74,0.33c-0.44-0.21-0.85-0.33-1.21-0.33
			C-1.28,480.729,5.48,464.389,9.55,456.809z"/>
	</g>
	<g>
		
			<path fill="none" stroke="#000000" stroke-width="0.5" stroke-linecap="round" stroke-linejoin="round" stroke-miterlimit="10" d="
			M130.08,71.839l-0.85-0.29l-6.98-2.37l-5.02,0.77c0,0,1.28,1.99,1.78,1.83C119.51,71.629,130.08,71.839,130.08,71.839z"/>
		
			<path fill="none" stroke="#000000" stroke-width="0.5" stroke-linecap="round" stroke-linejoin="round" stroke-miterlimit="10" d="
			M137.75,71.179c0.75,0.12,11.38-0.62,11.38-0.62l-1.26-2.14L137.75,71.179z"/>
	</g>
</g>
<g opacity="0.67">
	<path fill="#FDEBE8" d="M150.625,71.554c0,0,0.133,0.75,0.18,1.887c0.048,1.136-0.014,2.654-0.222,4.156
		c-0.109,0.75-0.238,1.496-0.4,2.188c-0.158,0.692-0.33,1.333-0.511,1.872c-0.349,1.082-0.672,1.772-0.672,1.772
		s0.016-0.191,0.062-0.518c0.046-0.326,0.112-0.792,0.191-1.351c0.164-1.114,0.39-2.588,0.588-4.065
		c0.209-1.476,0.395-2.956,0.536-4.072C150.526,72.301,150.625,71.554,150.625,71.554z"/>
</g>
<g opacity="0.67">
	<path fill="#FBEABD" d="M70.583,129.679c0,0-1.645,1.732-4.111,4.329c-0.599,0.65-1.247,1.355-1.933,2.1
		c-0.692,0.734-1.375,1.55-2.103,2.367c-0.742,0.805-1.429,1.704-2.191,2.559c-0.708,0.898-1.455,1.789-2.157,2.709
		c-0.674,0.939-1.425,1.829-2.045,2.781c-0.628,0.947-1.318,1.838-1.858,2.775c-0.562,0.924-1.179,1.786-1.626,2.673
		c-0.243,0.436-0.479,0.861-0.707,1.272c-0.254,0.402-0.462,0.806-0.638,1.205c-0.366,0.792-0.735,1.513-1.065,2.157
		c-0.278,0.665-0.52,1.245-0.72,1.723c-0.408,0.963-0.678,1.52-0.678,1.52s0.012-0.6,0.098-1.66
		c0.052-0.527,0.078-1.184,0.202-1.917c0.152-0.724,0.327-1.546,0.555-2.438c0.178-0.913,0.573-1.822,0.929-2.817
		c0.337-1.007,0.827-2.001,1.339-3.033c0.481-1.051,1.122-2.049,1.752-3.078c0.604-1.05,1.386-1.991,2.088-2.994
		c0.754-0.96,1.545-1.89,2.341-2.787c0.833-0.861,1.624-1.739,2.476-2.496c0.828-0.783,1.664-1.498,2.48-2.147
		c0.79-0.677,1.602-1.241,2.339-1.771c1.484-1.048,2.793-1.813,3.732-2.307C70.016,129.903,70.583,129.679,70.583,129.679z"/>
</g>
<g opacity="0.67">
	<path fill="#FBEABD" d="M195.75,138.554c0,0,0.37,0.268,0.959,0.791c0.588,0.527,1.411,1.281,2.286,2.34
		c0.219,0.273,0.444,0.548,0.674,0.903c0.117,0.181,0.227,0.351,0.342,0.707c0.028,0.112,0.05,0.227,0.065,0.342l0.021,0.145
		l0.04,0.254c0.107,0.747,0.211,1.544,0.29,2.369c0.164,1.65,0.256,3.418,0.255,5.191c-0.012,3.542-0.4,7.131-1.317,9.764
		c-0.458,1.303-1.012,2.424-1.808,2.957c-0.169,0.145-0.412,0.19-0.57,0.233c-0.187-0.014-0.333-0.002-0.438-0.051
		c-0.21-0.098-0.3-0.153-0.3-0.153s0.11-0.006,0.315-0.019c0.096-0.003,0.202-0.082,0.309-0.12c0.091-0.109,0.201-0.163,0.275-0.324
		c0.174-0.26,0.271-0.688,0.363-1.167c0.091-0.482,0.112-1.07,0.164-1.69c0.084-2.535,0-5.976,0.008-9.436
		c0.009-1.73,0.034-3.466,0.092-5.099c0.039-0.82,0.077-1.612,0.113-2.363l0.02-0.307l0.009-0.132
		c-0.002,0.025,0.004,0.05,0.016,0.072c0.02,0.004-0.016-0.158-0.059-0.292c-0.082-0.281-0.214-0.591-0.337-0.879
		c-0.541-1.197-0.992-2.195-1.308-2.893C195.913,138.981,195.75,138.554,195.75,138.554z"/>
</g>
<g opacity="0.67">
	<path fill="#FCE7E8" d="M136,82.179c0,0,0.116,0.289,0.214,0.723c0.095,0.434,0.158,1.012,0.16,1.59
		c-0.002,0.578-0.064,1.156-0.159,1.59c-0.099,0.434-0.215,0.723-0.215,0.723s-0.116-0.289-0.215-0.723
		c-0.095-0.434-0.157-1.012-0.159-1.59c0.003-0.578,0.065-1.156,0.16-1.59C135.884,82.468,136,82.179,136,82.179z"/>
</g>
<g opacity="0.67">
	<path fill="#81CDE0" d="M62,334.679c0.375,1.719,0.641,3.438,0.872,5.156c0.131,0.859,0.214,1.719,0.309,2.578
		c0.092,0.859,0.196,1.719,0.262,2.578c0.3,3.438,0.468,6.875,0.528,10.312c0.058,3.438,0.02,6.875-0.13,10.313
		c-0.073,1.719-0.183,3.437-0.316,5.156c-0.133,1.719-0.34,3.438-0.527,5.156l-0.027,0.244c-0.044,0.403-0.372,0.705-0.762,0.732
		c-0.974,0.066-1.973,0.197-2.964,0.314c-0.995,0.123-1.986,0.268-2.995,0.46c0.83-0.611,1.749-1.096,2.677-1.542
		c0.935-0.444,1.879-0.815,2.864-1.183l-0.788,0.975c-0.187-1.719-0.393-3.437-0.527-5.156c-0.133-1.719-0.244-3.438-0.316-5.156
		c-0.149-3.438-0.187-6.875-0.13-10.313c0.06-3.437,0.228-6.875,0.528-10.312c0.066-0.859,0.17-1.719,0.262-2.578
		c0.095-0.859,0.179-1.719,0.309-2.578C61.359,338.116,61.625,336.398,62,334.679z"/>
</g>
<g opacity="0.67">
	<path fill="#3B1D0A" d="M133.984,54.606c0,0,0.068-0.094,0.17-0.283c0.09-0.197,0.219-0.472,0.366-0.845
		c0.315-0.731,0.669-1.815,1.081-3.113c0.415-1.298,0.788-2.844,1.162-4.501c0.18-0.83,0.341-1.694,0.493-2.572
		c0.112-0.884,0.285-1.775,0.345-2.679c0.102-0.899,0.205-1.799,0.233-2.69c0.024-0.445,0.047-0.886,0.071-1.322
		c-0.003-0.437-0.006-0.868-0.009-1.292c-0.002-0.424-0.004-0.842-0.006-1.25c-0.022-0.408-0.044-0.807-0.065-1.195
		c-0.037-0.778-0.075-1.515-0.181-2.188c-0.081-0.677-0.155-1.298-0.221-1.848c-0.103-0.545-0.192-1.02-0.266-1.411
		c-0.139-0.788-0.219-1.238-0.219-1.238s0.131,0.438,0.36,1.204c0.11,0.386,0.245,0.854,0.398,1.391
		c0.121,0.545,0.242,1.164,0.364,1.842c0.146,0.675,0.226,1.417,0.308,2.203c0.044,0.393,0.089,0.797,0.134,1.21
		c0.029,0.414,0.027,0.838,0.042,1.269c0.011,0.431,0.022,0.87,0.034,1.314c-0.015,0.444-0.031,0.893-0.046,1.345
		c-0.012,0.907-0.097,1.823-0.187,2.739c-0.078,0.918-0.27,1.82-0.401,2.715c-0.17,0.889-0.35,1.761-0.548,2.599
		c-0.408,1.675-0.919,3.202-1.397,4.491c-0.482,1.29-0.976,2.327-1.348,3.038c-0.175,0.358-0.358,0.629-0.467,0.81
		C134.062,54.522,133.984,54.606,133.984,54.606z"/>
</g>
<g opacity="0.67">
	<path d="M124.75,19.846c0,0,0.541,0.371,1.214,1.081c0.677,0.705,1.454,1.765,2.055,2.926c0.154,0.288,0.281,0.59,0.414,0.882
		c0.142,0.288,0.229,0.596,0.339,0.881c0.114,0.284,0.178,0.576,0.255,0.844c0.082,0.268,0.132,0.529,0.174,0.77
		c0.103,0.477,0.123,0.888,0.149,1.17c0.022,0.283,0.024,0.445,0.024,0.445s-0.067-0.151-0.167-0.415
		c-0.089-0.267-0.24-0.639-0.42-1.081c-0.169-0.445-0.393-0.952-0.63-1.492c-0.247-0.536-0.507-1.108-0.805-1.661
		c-0.572-1.118-1.215-2.203-1.728-3.008C125.124,20.378,124.75,19.846,124.75,19.846z"/>
</g>
<g opacity="0.67">
	<path fill="#AA8F7A" d="M119.083,8.179c0,0,0.365,0.06,0.982,0.259c0.302,0.113,0.681,0.229,1.091,0.419
		c0.42,0.17,0.878,0.396,1.364,0.671c0.483,0.277,0.998,0.598,1.521,0.967c0.517,0.378,1.067,0.776,1.57,1.265
		c0.537,0.453,1.018,0.996,1.516,1.538c0.484,0.554,0.918,1.165,1.37,1.759c0.383,0.641,0.805,1.26,1.146,1.91
		c0.321,0.66,0.655,1.302,0.919,1.947c0.237,0.655,0.466,1.289,0.683,1.889c0.179,0.612,0.314,1.2,0.456,1.736
		c0.149,0.535,0.258,1.031,0.305,1.481c0.064,0.445,0.12,0.834,0.165,1.153c0.082,0.639,0.129,1.004,0.129,1.004
		s-0.099-0.355-0.272-0.976c-0.082-0.31-0.181-0.687-0.294-1.119c-0.099-0.435-0.264-0.911-0.439-1.429
		c-0.177-0.518-0.35-1.085-0.566-1.67c-0.245-0.574-0.504-1.179-0.772-1.805c-0.275-0.621-0.638-1.224-0.949-1.864
		c-0.337-0.626-0.755-1.218-1.13-1.834c-0.43-0.577-0.842-1.173-1.302-1.713c-0.478-0.524-0.911-1.077-1.417-1.528
		c-0.475-0.483-0.971-0.909-1.448-1.311c-0.481-0.393-0.96-0.74-1.411-1.043c-0.459-0.293-0.877-0.567-1.267-0.781
		c-0.38-0.232-0.736-0.387-1.021-0.533C119.431,8.303,119.083,8.179,119.083,8.179z"/>
</g>
<g opacity="0.67">
	<path fill="#9A956F" d="M131.038,11.846c0,0,0.326,0.105,0.864,0.372c0.525,0.285,1.286,0.698,2.093,1.347
		c0.396,0.33,0.833,0.686,1.251,1.108c0.426,0.415,0.863,0.866,1.257,1.383c0.429,0.49,0.783,1.062,1.17,1.623
		c0.35,0.584,0.687,1.191,1.003,1.806c0.264,0.639,0.577,1.26,0.792,1.905c0.208,0.647,0.437,1.278,0.586,1.906
		c0.134,0.631,0.264,1.241,0.388,1.82c0.071,0.586,0.139,1.139,0.201,1.65c0.073,0.509,0.107,0.978,0.097,1.397
		c0.005,0.417,0.009,0.78,0.013,1.079c-0.003,0.596-0.004,0.937-0.004,0.937s-0.052-0.337-0.142-0.928
		c-0.04-0.294-0.089-0.652-0.145-1.061c-0.044-0.411-0.136-0.867-0.237-1.364c-0.099-0.496-0.206-1.033-0.319-1.601
		c-0.155-0.557-0.319-1.144-0.488-1.751c-0.164-0.607-0.428-1.204-0.629-1.831c-0.215-0.623-0.528-1.216-0.788-1.831
		c-0.298-0.596-0.615-1.185-0.944-1.752c-0.371-0.541-0.676-1.117-1.076-1.6c-0.368-0.508-0.748-0.978-1.13-1.409
		c-0.373-0.439-0.77-0.814-1.13-1.165c-0.741-0.682-1.404-1.207-1.894-1.542C131.338,12.011,131.038,11.846,131.038,11.846z"/>
</g>
<g opacity="0.67">
	<path fill="#9A956F" d="M143.112,18.354c0,0,0.172,0.083,0.45,0.27c0.268,0.196,0.662,0.475,1.076,0.876
		c0.41,0.402,0.871,0.898,1.284,1.489c0.434,0.578,0.806,1.254,1.159,1.937c0.319,0.7,0.598,1.417,0.802,2.106
		c0.189,0.694,0.338,1.346,0.405,1.916c0.102,0.562,0.089,1.045,0.117,1.375c0.015,0.332,0.012,0.522,0.012,0.522
		s-0.064-0.181-0.157-0.499c-0.091-0.318-0.212-0.772-0.393-1.303c-0.159-0.537-0.38-1.148-0.611-1.802
		c-0.256-0.645-0.532-1.327-0.851-1.991c-0.324-0.66-0.668-1.31-1.032-1.897c-0.352-0.595-0.731-1.118-1.057-1.57
		C143.655,18.889,143.112,18.354,143.112,18.354z"/>
</g>
<g opacity="0.67">
	<path fill="#A59620" d="M151.448,28.846c0,0,0.256,0.557,0.484,1.44c0.229,0.882,0.411,2.09,0.419,3.309
		c0,0.608-0.024,1.218-0.101,1.785c-0.064,0.567-0.171,1.092-0.292,1.533c-0.109,0.444-0.253,0.799-0.348,1.048
		c-0.097,0.248-0.162,0.385-0.162,0.385s0.001-0.155,0.019-0.418c0.032-0.261,0.04-0.638,0.065-1.083
		c0.048-0.891,0.086-2.066,0.069-3.244c-0.003-1.178-0.055-2.359-0.094-3.253C151.472,29.447,151.448,28.846,151.448,28.846z"/>
</g>
<path opacity="0.67" fill="#B68E74" d="M158.676,38.346c0.074,0.667-1.333,6.5-3.213,7.333"/>
<g opacity="0.67">
	<path fill="#3B1D0A" d="M150.172,56.179c0,0,0.149-0.125,0.424-0.324c0.275-0.196,0.667-0.476,1.137-0.813
		c0.938-0.666,2.169-1.557,3.302-2.555c0.578-0.486,1.115-1.016,1.614-1.518c0.233-0.265,0.487-0.5,0.696-0.748
		c0.206-0.251,0.423-0.473,0.601-0.696c0.354-0.446,0.671-0.811,0.856-1.092c0.201-0.271,0.326-0.423,0.326-0.423
		s-0.066,0.182-0.199,0.496c-0.13,0.315-0.334,0.758-0.63,1.267c-0.298,0.505-0.688,1.072-1.158,1.639
		c-0.471,0.565-1.024,1.126-1.613,1.642c-1.183,1.034-2.528,1.849-3.575,2.358C150.899,55.911,150.172,56.179,150.172,56.179z"/>
</g>
<g opacity="0.67">
	<path fill="none" d="M131.038,57.054"/>
</g>
<g opacity="0.67">
	<path fill="none" d="M116.538,16.346"/>
</g>
<g opacity="0.67">
	<path fill="none" d="M131.038,57.054"/>
</g>
<g opacity="0.67">
	<path fill="none" d="M116.538,16.346"/>
</g>
<g opacity="0.67">
	<path fill="#3669B3" d="M102.5,17.179c0,0,0.663-0.294,1.716-0.555c0.527-0.123,1.15-0.245,1.827-0.31
		c0.675-0.084,1.405-0.088,2.134-0.063c0.364,0.019,0.728,0.073,1.086,0.107c0.356,0.061,0.705,0.133,1.039,0.214
		c0.668,0.176,1.267,0.424,1.754,0.679c0.238,0.141,0.449,0.28,0.634,0.403c0.188,0.117,0.322,0.266,0.446,0.363
		c0.238,0.211,0.364,0.337,0.364,0.337s-0.169-0.075-0.446-0.216c-0.142-0.065-0.295-0.173-0.501-0.241
		c-0.204-0.072-0.431-0.153-0.67-0.252c-0.25-0.072-0.521-0.15-0.808-0.233c-0.286-0.078-0.601-0.118-0.914-0.195
		c-0.641-0.103-1.328-0.19-2.024-0.218c-0.695-0.039-1.394-0.047-2.051-0.028c-0.658,0.01-1.274,0.051-1.805,0.076
		C103.219,17.11,102.5,17.179,102.5,17.179z"/>
</g>
<g opacity="0.67">
	<path fill="#907D69" d="M147,134.621c0,0,0.511,0.558,1.353,1.568c0.843,1.009,2.028,2.463,3.379,4.253
		c0.68,0.893,1.416,1.859,2.159,2.905c0.75,1.041,1.555,2.13,2.335,3.29c0.784,1.158,1.631,2.331,2.423,3.566
		c0.802,1.229,1.617,2.478,2.431,3.726c0.793,1.262,1.591,2.522,2.348,3.78c0.774,1.247,1.482,2.509,2.194,3.712
		c0.717,1.201,1.364,2.39,1.984,3.514c0.629,1.118,1.193,2.195,1.706,3.194c1.041,1.988,1.845,3.685,2.384,4.887
		c0.548,1.197,0.802,1.912,0.802,1.912s-0.477-0.582-1.311-1.6c-0.823-1.022-1.996-2.485-3.334-4.283
		c-1.352-1.789-2.881-3.907-4.464-6.212c-0.781-1.159-1.622-2.335-2.419-3.566c-0.799-1.231-1.61-2.481-2.421-3.731
		c-0.785-1.267-1.57-2.534-2.342-3.781c-0.782-1.241-1.487-2.504-2.204-3.704c-0.72-1.198-1.368-2.387-1.995-3.506
		c-0.634-1.115-1.201-2.19-1.723-3.182c-1.053-1.98-1.873-3.667-2.434-4.856C147.292,135.319,147,134.621,147,134.621z"/>
</g>
<g opacity="0.67">
	<path fill="#907D69" d="M90.569,184.679c0,0-15.319,1.5-21.819,1.5"/>
	<path fill="#907D69" d="M90.569,184.679c0,0-0.327,0.163-0.908,0.385c-0.58,0.226-1.413,0.51-2.418,0.793
		c-2.011,0.566-4.722,1.049-7.459,1.256c-2.736,0.209-5.5,0.137-7.579-0.158c-1.039-0.146-1.906-0.327-2.51-0.49
		c-0.604-0.16-0.945-0.286-0.945-0.286s0.343-0.135,0.935-0.31c0.592-0.18,1.434-0.412,2.444-0.651
		c2.018-0.472,4.713-0.892,7.43-1.096c2.717-0.202,5.455-0.186,7.529,0.011c1.037,0.1,1.906,0.226,2.517,0.339
		C90.216,184.583,90.569,184.679,90.569,184.679z"/>
</g>
<g>
	<path d="M127.218,93.304c0,0,0.202-0.058,0.576-0.104c0.374-0.043,0.9-0.116,1.536-0.162c1.27-0.102,2.963-0.162,4.655-0.157
		c1.692,0.01,3.384,0.084,4.652,0.189c1.268,0.109,2.113,0.233,2.113,0.233s-0.847,0.108-2.116,0.197
		c-1.269,0.085-2.961,0.135-4.652,0.13c-1.691-0.01-3.381-0.076-4.649-0.164c-0.633-0.05-1.161-0.092-1.53-0.122
		C127.437,93.311,127.218,93.304,127.218,93.304z"/>
</g>
<g>
	<path d="M132.3,96.532c0.007,0.006,0.039-0.076,0.165-0.159c0.134-0.087,0.311-0.194,0.547-0.282
		c0.465-0.182,1.109-0.301,1.76-0.314c0.649-0.01,1.308,0.097,1.776,0.293c0.477,0.191,0.702,0.461,0.702,0.461
		s-0.09-0.005-0.224-0.025c-0.137-0.02-0.335-0.013-0.564-0.015c-0.458,0.009-1.068,0.022-1.679,0.034
		c-0.611,0.007-1.229-0.002-1.695-0.013c-0.229,0-0.439-0.022-0.562-0.008C132.387,96.505,132.299,96.537,132.3,96.532z"/>
</g>
<g>
	<path d="M131.038,88.554c-0.008-0.001,0.139-0.121,0.385-0.188c0.24-0.07,0.562-0.122,0.881-0.112
		c0.319,0.004,0.635,0.069,0.87,0.139c0.235,0.071,0.388,0.16,0.388,0.16s-0.162,0.071-0.401,0.121
		c-0.239,0.049-0.555,0.089-0.868,0.079C131.662,88.749,131.059,88.538,131.038,88.554z"/>
</g>
<g>
	<path d="M136.125,88.498c0-0.019,0.406-0.267,0.812-0.25c0.406-0.018,0.813,0.23,0.813,0.25c0,0.019-0.406,0.268-0.813,0.25
		C136.531,88.765,136.125,88.518,136.125,88.498z"/>
</g>
<g>
	<path d="M130.083,71.835c0,0,0.249,0.008,0.593,0.131c0.165,0.072,0.37,0.145,0.562,0.273c0.199,0.117,0.385,0.284,0.564,0.46
		c0.162,0.192,0.317,0.396,0.409,0.618c0.104,0.215,0.138,0.443,0.16,0.627c0.035,0.379-0.087,0.613-0.072,0.611
		c0,0-0.025-0.059-0.056-0.158c-0.018-0.1-0.084-0.233-0.145-0.386c-0.133-0.306-0.372-0.655-0.662-0.972
		c-0.296-0.312-0.63-0.608-0.897-0.828C130.272,71.992,130.083,71.835,130.083,71.835z"/>
</g>
<g>
	<path d="M117.583,65.012c0,0,0.215,0.037,0.582,0.193c0.365,0.154,0.879,0.367,1.481,0.661c1.208,0.577,2.795,1.389,4.35,2.258
		c1.558,0.864,3.085,1.783,4.219,2.491c1.134,0.709,1.868,1.219,1.868,1.219s-0.814-0.37-2.006-0.974
		c-1.192-0.604-2.77-1.432-4.323-2.3c-1.557-0.863-3.09-1.768-4.239-2.447c-0.574-0.339-1.052-0.621-1.387-0.819
		C117.799,65.096,117.583,65.012,117.583,65.012z"/>
</g>
<g>
	<path d="M147.875,65.679c0,0-0.592,0.418-1.51,0.991c-0.918,0.572-2.155,1.313-3.42,2.001c-1.263,0.694-2.553,1.337-3.533,1.797
		c-0.486,0.237-0.907,0.405-1.196,0.533c-0.291,0.124-0.466,0.178-0.466,0.178s0.607-0.391,1.529-0.958
		c0.922-0.565,2.162-1.299,3.426-1.988c1.262-0.694,2.55-1.34,3.525-1.809C147.206,65.957,147.875,65.679,147.875,65.679z"/>
</g>
<g id="XMLID_4_">
	<g>
		<path fill="#C9B89E" d="M196.23,148.479c0,0.45-5.5,4.04-5.5,4.04l-7.13-10.17c0,0,7.5-1.58,7.88-1.59
			C191.86,140.759,196.23,148.019,196.23,148.479z"/>
	</g>
	<g>
	</g>
</g>
</svg>
