<?xml version="1.0" encoding="utf-8"?><!-- Generator: Adobe Illustrator 20.0.0, SVG Export Plug-In . SVG Version: 6.00 Build 0)  -->
                                                             <svg xmlns:xlink="http://www.w3.org/1999/xlink" version="1.1" viewBox="0 0 1920 1080" x="0px"
                                                             	 xmlns="http://www.w3.org/2000/svg" y="0px">
                                                             	<g> <path fill="none" stroke="#000000" d="M60,126 L 60,570" /> <path fill="none" stroke="#000000" d="M60,162 L 228,162 258,132 228,162 228,540" /> <path fill="none" stroke="#000000" d="M228,486 L 60,486" /> <path fill="none" stroke="#000000" d="M456,30 L 492,42 462,108 426,168 396,216 354,276 324,312 288,354 252,390" /> <path fill="none" stroke="#000000" d="M474,90 L 510,138 540,174 576,222 612,264 654,306 696,342 750,378" /> <path fill="none" stroke="#000000" d="M336,348 L 612,348 570,330 522,348" /> <path fill="none" stroke="#000000" d="M336,438 L 336,750" /> <path fill="none" stroke="#000000" d="M336,474 L 606,474 630,450 606,474 606,744" /> <path fill="none" stroke="#000000" d="M606,696 L 336,696" /></g><g transform="translate(750)" > <path fill="none" stroke="#000000" d="M72,192 L 72,492" /> <path fill="none" stroke="#000000" d="M72,222 L 282,222 312,192 282,222 282,474" /> <path fill="none" stroke="#000000" d="M282,438 L 72,438" /> <path fill="none" stroke="#000000" d="M150,30 L 180,42 180,630" /> <path fill="none" stroke="#000000" d="M12,636 L 36,678 300,600" /> <path fill="none" stroke="#000000" d="M246,522 L 288,576 312,612 336,666" /> <path fill="none" stroke="#000000" d="M498,30 L 528,42 474,138 444,186 408,234 372,282 336,324 294,366" /> <path fill="none" stroke="#000000" d="M498,96 L 552,162 594,210 636,258 678,306 738,360" /> <path fill="none" stroke="#000000" d="M384,348 L 654,348 606,336 564,348" /> <path fill="none" stroke="#000000" d="M390,438 L 390,750" /> <path fill="none" stroke="#000000" d="M390,474 L 642,474 666,450 642,474 642,738" /> <path fill="none" stroke="#000000" d="M642,696 L 390,696" /></g>
                                                             </svg>