<?xml version="1.0" encoding="utf-8"?>
<!-- Generator: Adobe Illustrator 20.0.0, SVG Export Plug-In . SVG Version: 6.00 Build 0)  -->
<svg version="1.1" id="图层_2" xmlns="http://www.w3.org/2000/svg" xmlns:xlink="http://www.w3.org/1999/xlink" x="0px" y="0px"
	 viewBox="0 0 187.134 200.154" enable-background="new 0 0 187.134 200.154" xml:space="preserve">
<g id="XMLID_1_">
	<g>
		
		<path fill="#FDFBF2" d="M62.961,143.197c1.31-2.35,2.63-4.7,3.95-7.05c0.97-1.73,1.94-3.45,2.91-5.18
			c0.27-0.49,0.55-0.97,0.82-1.46l0.68,0.38c10.92-2.05,22.83,4.59,26.83,14.96c0.15,0.41,0.35,0.86,0.77,0.99
			c0.17,0.05,0.35-0.03,0.48-0.15l0.46,0.45c-3.45,3.6-7.12,6.64-12.68,9.61c-0.44,0.24-0.89,0.47-1.36,0.71
			c-0.4,0.2-2.57,1.12-3.69,2.03c-0.34,0.28-1.1,0.94-2.02,1.53c0,0.01-0.01,0.01-0.01,0.01c-1.98,2.3-3.92,4.57-5.81,6.84
			l-0.71-0.59c-2.61,3.08-7.69,2.91-11.21,0.91c-3.59-2.04-7.88-6.37-8.07-6.95c0.13-0.43-0.04-0.61,0-1.14v-0.01
			c1.29-2.48,2.62-4.94,3.95-7.38C59.811,148.867,61.381,146.027,62.961,143.197z"/>
		<path fill="#FDFBF2" d="M138.671,145.257c2.35,4.18,2.24,9.33,1.22,14.02c-0.78,3.58-2.14,7.19-4.75,9.74
			c-5.29-0.24-10.72-0.77-13.97-1.82c-13.59-4.43-18.73-6.11-32.31-10.54c-0.84-0.27-1.11-0.44-1.68-0.91
			c5.56-2.97,9.23-6.01,12.68-9.61c2.97-3.1,5.77-6.62,9.47-10.9c0.47-0.54,0.93-1.08,1.39-1.63c8.21,6,18,9.17,27.98,11.54
			L138.671,145.257z"/>
		<path fill="#C2E1D0" d="M85.261,77.447l0.2,0.74c-0.65,0.2-1.3,0.39-1.94,0.59c-0.01,0.62-0.02,1.23-0.03,1.85
			c2.6-0.05,5.19-0.53,7.64-1.42c0.55-0.2,1.15-0.47,1.38-1.01c0.34-0.78-0.33-1.7-1.15-1.95s-1.69-0.02-2.51,0.21
			C87.651,76.787,86.451,77.117,85.261,77.447z M40.221,50.137c0.14,2.29,0.44,4.65,1.86,6.41c1.37,1.7,3.53,2.52,5.6,3.19
			c1.34,0.43,2.73,0.83,4.12,1.11l-0.07,0.36c0.12,3.79,0.26,7.64,1.4,11.26c1.15,3.62,3.46,7.04,6.9,8.66
			c0.49-0.92,0.98-1.83,1.47-2.75c1.07-2,2.33-4.16,4.48-4.89c0.12-0.04,0.25-0.08,0.37-0.11c1.69-0.41,3.53,0.16,4.96,1.17
			c1.54,1.09,2.69,2.62,3.81,4.14c-0.08-0.14-0.15-0.27-0.22-0.41l0.56-0.31c0.08,0.09,0.29,0.16,0.44,0.12
			c1.7-0.56,3.02-1.97,3.83-3.56c0.81-1.59,1.18-3.37,1.48-5.13c0.51-2.97,0.86-5.96,1.05-8.96l-0.03-0.3
			c2.59-0.32,5.17-0.75,7.73-1.29c1.89-0.4,3.85-0.9,5.31-2.16c2.17-1.85,2.8-4.91,3.08-7.75c0.13-1.35,0.22-2.71,0.25-4.06h0.11
			c6.38,0.26,12.76,0.12,19.12-0.41c0.07,0.01,0.13,0.01,0.2,0.02c-1.55,3.03-2.7,6.32-2.75,9.72c-0.03,2.6,0.65,5.27,2.1,7.4
			c-0.32,0.28-0.64,0.56-0.97,0.84c0.42-0.15,0.85-0.29,1.28-0.4c0.37,0.5,0.79,0.96,1.26,1.38c-2.94,0.79-5.81,1.8-8.59,3.04
			l0.1,0.22c-0.7,6.22-1.07,12.49-1.11,18.76c3.45,3.18,5.07,9.12,3.36,13.43c-0.37,0.94-0.91,1.81-1.62,2.55
			c-1.96,2.03-4.62,3.21-7.29,4.12c-5.46,1.85-11.19,2.73-16.9,3.47c-12.58,1.63-24.56,2.87-37.24,3.14
			c-0.02-0.02-0.04-0.05-0.06-0.07c-3.32-3.84-5.44-8.55-7.52-13.18c-2.96-6.61-5.99-13.55-6.24-20.7c0.05-0.12,0.05-0.25-0.01-0.34
			c0,0.12,0,0.23,0.01,0.34c-0.05,0.15-0.16,0.27-0.31,0.3c-0.34,0.05-0.65-0.19-0.9-0.42c-6.02-5.38-11.77-11.73-14.33-19.26
			c0.09-0.1,0.14,0.07,0.64,0.21c0.12,0.04,0.4,0.07,0.53,0.08c3.6,0.15,7.28-0.2,10.63-1.54c3.35-1.35,6.49-4.21,8.11-7.44H40.221z
			"/>
		<path fill="#C2E1D0" d="M91.361,76.247c0.82,0.25,1.49,1.17,1.15,1.95c-0.23,0.54-0.83,0.81-1.38,1.01
			c-2.45,0.89-5.04,1.37-7.64,1.42c0.01-0.62,0.02-1.23,0.03-1.85c0.64-0.2,1.29-0.39,1.94-0.59l-0.2-0.74
			c1.19-0.33,2.39-0.66,3.59-0.99C89.671,76.227,90.541,75.997,91.361,76.247z"/>
		<path fill="#FBD066" d="M67.741,129.797c-0.42,0.73-1.2,1.37-1.93,1.84c-2.83,1.8-5.71,3.52-8.63,5.15l-0.61,0.37
			c-3.05-3.78-5.61-8.32-6.31-11.9c-0.85-4.33-1.07-8.77-0.66-13.17c0.02,0.02,0.04,0.05,0.06,0.07
			c12.68-0.27,24.66-1.51,37.24-3.14c5.71-0.74,11.44-1.62,16.9-3.47c2.67-0.91,5.33-2.09,7.29-4.12c0.71-0.74,1.25-1.61,1.62-2.55
			c5.54,5.75,7.69,14.57,5.39,22.22c-1.4,4.68-4.25,8.75-7.38,12.51c-0.46,0.55-0.92,1.09-1.39,1.63c-3.7,4.28-6.5,7.8-9.47,10.9
			l-0.46-0.45c-0.13,0.12-0.31,0.2-0.48,0.15c-0.42-0.13-0.62-0.58-0.77-0.99c-4-10.37-15.91-17.01-26.83-14.96l-0.68-0.38
			c-0.27,0.49-0.55,0.97-0.82,1.46L67.741,129.797z"/>
		<path fill="#FBD066" d="M57.181,136.787c2.92-1.63,5.8-3.35,8.63-5.15c0.73-0.47,1.51-1.11,1.93-1.84l2.08,1.17
			c-0.97,1.73-1.94,3.45-2.91,5.18c-1.32,2.35-2.64,4.7-3.95,7.05c-2.08-1.32-4.35-3.51-6.39-6.04L57.181,136.787z"/>
		<path fill="#8FADB8" d="M181.071,161.007c3.03,2.75,5.66,6.42,5.56,10.52c-0.1,4.09-4.06,8.13-8,7.02
			c-1.58-0.45-2.85-1.59-4.17-2.58c-5.57-4.23-12.24-5.53-19.2-6.2c2.78-2.79,4.51-6.62,4.75-10.56c0.24-3.87-0.95-7.81-3.28-10.91
			c0.5-0.03,0.99-0.08,1.49-0.16c2.23-0.37,4.46-1.3,6.67-0.84c2.97,0.63,4.8,3.51,6.84,5.76
			C174.471,156.097,178.031,158.267,181.071,161.007z"/>
		<path fill="#8FADB8" d="M156.731,148.297c2.33,3.1,3.52,7.04,3.28,10.91c-0.24,3.94-1.97,7.77-4.75,10.56
			c-0.26-0.03-0.53-0.06-0.8-0.08c-4.62-0.41-8.46-0.48-12-0.5c-2.24-0.01-4.76-0.06-7.32-0.17c2.61-2.55,3.97-6.16,4.75-9.74
			c1.02-4.69,1.13-9.84-1.22-14.02l0.03-0.11c3.3,0.79,6.62,1.49,9.91,2.18C151.291,147.887,154.021,148.447,156.731,148.297z"/>
		<path fill="#FDFBF2" d="M117.381,61.607c-1.45-2.13-2.13-4.8-2.1-7.4c0.05-3.4,1.2-6.69,2.75-9.72c3.6,0.37,7.49,0.24,11.08,0.61
			c6.23,0.66,12.92,1.51,17.53,5.76c2.39,2.21,3.98,5.13,5.52,8c0.79,1.47,1.57,2.94,2.36,4.41c1.12,2.09,2.28,4.35,1.97,6.7
			c-0.3,2.35-2.82,4.52-4.98,3.54c0.69,1.72-1.01,3.76-2.86,3.74c-1.85-0.02-3.42-1.66-3.78-3.48c-0.76,1.61-2.92,2.38-4.53,1.62
			c-1.75-0.82-2.45-2.88-3.29-4.61c-3.37-6.91-11.98-10.68-19.36-8.73C117.581,61.907,117.471,61.757,117.381,61.607z"/>
		<path fill="#FDFBF2" d="M69.561,60.717c-0.73,1.11-1.71,2.34-2.27,3.12c-0.69,0.97-2,1.9-3.19,1.9c-1.02,0-1.88-0.71-2.6-1.43
			c-1.16-1.17-2.18-2.05-3.06-3.44c-1.08,0.28-2.19,0.38-3.3,0.36c-1.11-0.01-2.23-0.15-3.34-0.38c-1.39-0.28-2.78-0.68-4.12-1.11
			c-2.07-0.67-4.23-1.49-5.6-3.19c-1.42-1.76-1.72-4.12-1.86-6.41c-0.02-0.24-0.04-0.48-0.05-0.72c-0.25-4.49-0.75-8.82-1-13.32
			c-2.27,0.34-4.62-1.6-4.72-3.9c-0.09-2.29,2.07-4.42,4.37-4.29c0.22,0.01,0.43,0.04,0.64,0.09c1.61,0.34,3.02,1.47,4.61,1.99
			c-0.33-2.18-0.05-5.28,0.48-7.42c0.53-2.13,2.14-4.16,4.32-4.47c0.11-1.2,0.22-2.4,0.33-3.6c4.97,2.95,10.28,6,16.05,5.87
			c5.41-0.12,10.31-3.01,14.92-5.83c1.29-0.78,2.62-1.59,4.12-1.79c1.49-0.2,3.2,0.37,3.87,1.72c0.39,0.8,0.39,1.79,0.94,2.5
			c0.61,0.76,1.69,0.94,2.48,1.52c1.32,0.95,1.6,2.77,1.73,4.39c0.13,1.62,0.3,3.42,1.51,4.51c1.03,0.92,3.04,0.6,3.52-0.53
			l0.04,0.01c-0.08,0.29-0.17,0.57-0.27,0.86l0.01,0.06c1.8-0.4,3.81,0.51,4.81,2.08c1.06,1.68,1,3.96-0.01,5.68
			c-1.01,1.71-2.64,1.79-4.61,2.12c0.26,2.39,0.35,4.8,0.29,7.21c-0.03,1.35-0.12,2.71-0.25,4.06c-0.28,2.84-0.91,5.9-3.08,7.75
			c-1.46,1.26-3.42,1.76-5.31,2.16c-2.56,0.54-5.14,0.97-7.73,1.29c-3.23,0.4-6.49,0.63-9.75,0.67c-0.92,0.02-1.85,0.02-2.77,0.01
			L69.561,60.717z"/>
		<path fill="#8B6BAE" d="M98.341,26.857c-0.48,1.13-2.49,1.45-3.52,0.53c-1.21-1.09-1.38-2.89-1.51-4.51
			c-0.13-1.62-0.41-3.44-1.73-4.39c-0.79-0.58-1.87-0.76-2.48-1.52c-0.55-0.71-0.55-1.7-0.94-2.5c-0.67-1.35-2.38-1.92-3.87-1.72
			c-1.5,0.2-2.83,1.01-4.12,1.79c-4.61,2.82-9.51,5.71-14.92,5.83c-5.77,0.13-11.08-2.92-16.05-5.87c-0.11,1.2-0.22,2.4-0.33,3.6
			c-2.18,0.31-3.79,2.34-4.32,4.47c-0.53,2.14-0.81,5.24-0.48,7.42c-1.59-0.52-3-1.65-4.61-1.99V8.437c0.35-0.38,0.72-0.75,1.1-1.1
			c6.09-5.51,15.42-6.18,23.82-6.54c9.47-0.41,19.15-0.59,28.16,2.35c1.99,0.65,4.05,1.54,5.28,3.24c0.85,1.17,1.22,2.61,1.48,4.02
			c1.02,5.45,0.7,11.16-0.92,16.46L98.341,26.857z"/>
		<path fill="#FFFFFF" d="M75.461,77.967l-0.56,0.31c0.07,0.14,0.14,0.27,0.22,0.41c-1.12-1.52-2.27-3.05-3.81-4.14
			c-1.43-1.01-3.27-1.58-4.96-1.17l-0.16-2.76c0.18,0,0.36-0.04,0.53-0.1c0.57-0.2,0.99-0.67,1.37-1.14
			c2.2-2.72,3.66-5.12,4.39-8.55v-0.02c3.26-0.04,6.52-0.27,9.75-0.67l0.03,0.3c-0.19,3-0.54,5.99-1.05,8.96
			c-0.3,1.76-0.67,3.54-1.48,5.13c-0.81,1.59-2.13,3-3.83,3.56C75.751,78.127,75.541,78.057,75.461,77.967z"/>
		<path fill="#8FADB8" d="M46.821,176.027c-0.13-0.01-0.26-0.01-0.39,0c2.29-5.79,4.99-11.41,7.87-16.93
			c-0.04,0.53,0.13,0.71,0,1.14c0.19,0.58,4.48,4.91,8.07,6.95c3.52,2,8.6,2.17,11.21-0.91l0.71,0.59
			c-4.91,5.84-9.56,11.68-14.05,18.11c-0.05-1.37-0.31-2.64-0.94-3.64c-1.94-3.09-8.42-4.79-11.7-5.24
			C47.341,176.067,47.081,176.027,46.821,176.027z"/>
		<path fill="#FDFBF2" d="M72.481,60.807v0.02c-0.73,3.43-2.19,5.83-4.39,8.55c-0.38,0.47-0.8,0.94-1.37,1.14
			c-0.17,0.06-0.35,0.1-0.53,0.1c-0.6,0.04-1.22-0.17-1.79-0.39c-2.25-0.88-4.42-2.06-6.16-3.73c-1.74-1.68-2.86-2.86-3.1-5.27
			c1.11,0.02,2.22-0.08,3.3-0.36c0.88,1.39,1.9,2.27,3.06,3.44c0.72,0.72,1.58,1.43,2.6,1.43c1.19,0,2.5-0.93,3.19-1.9
			c0.56-0.78,1.54-2.01,2.27-3.12l0.15,0.1C70.631,60.827,71.561,60.827,72.481,60.807z"/>
		<path fill="#FFFFFF" d="M66.191,70.617l0.16,2.76c-0.12,0.03-0.25,0.07-0.37,0.11c-2.15,0.73-3.41,2.89-4.48,4.89
			c-0.49,0.92-0.98,1.83-1.47,2.75c-3.44-1.62-5.75-5.04-6.9-8.66c-1.14-3.62-1.28-7.47-1.4-11.26l0.07-0.36
			c1.11,0.23,2.23,0.37,3.34,0.38c0.24,2.41,1.36,3.59,3.1,5.27c1.74,1.67,3.91,2.85,6.16,3.73
			C64.971,70.447,65.591,70.657,66.191,70.617z"/>
		<path fill="#8FADB8" d="M60.241,184.977c0.12,3.16-0.87,6.91-1.13,9.53c-0.19,1.95-0.67,4.27-2.5,4.96
			c-1.01,0.38-2.13,0.11-3.17-0.19c-3.2-0.92-18.06-5.18-16.18-9.26c0.3-0.66,0.73-1.17,1.24-1.54l-0.79-1.23
			c2.03-3.11,4.06-6.21,6.1-9.32c0.42-0.64,0.87-1.32,1.57-1.66c0.33-0.15,0.68-0.22,1.05-0.24c-0.15,0.35-0.28,0.71-0.42,1.06
			c0.27-0.35,0.54-0.71,0.81-1.06c0.26,0,0.52,0.04,0.78,0.07c3.28,0.45,9.76,2.15,11.7,5.24
			C59.931,182.337,60.191,183.607,60.241,184.977z"/>
		<path fill="#332C2C" d="M38.591,146.907c1.9,4.52,2.69,9.64,1.4,14.37c-1.63,5.97-6.57,10.81-12.44,12.74
			c-5.88,1.92-12.52,1.03-17.92-1.99c-2.96-1.65-5.63-3.98-7.22-6.98c-1.53-2.88-1.99-6.23-1.9-9.49c0.1-3.56,0.86-7.17,2.78-10.17
			c1.28-2,3.62-4.94,7.55-6.51c6.68-3.44,13.2-3.31,20.18,0.06C34.521,140.627,37.111,143.377,38.591,146.907z"/>
	</g>
	<g>
		<path fill="none" stroke="#000000" stroke-linecap="round" stroke-linejoin="round" stroke-miterlimit="10" d="M39.461,28.097
			v-0.1V8.437c0.35-0.38,0.72-0.75,1.1-1.1c6.09-5.51,15.42-6.18,23.82-6.54c9.47-0.41,19.15-0.59,28.16,2.35
			c1.99,0.65,4.05,1.54,5.28,3.24c0.85,1.17,1.22,2.61,1.48,4.02c1.02,5.45,0.7,11.16-0.92,16.46c-0.08,0.29-0.17,0.57-0.27,0.86"/>
		<path fill="none" stroke="#000000" stroke-linecap="round" stroke-linejoin="round" stroke-miterlimit="10" d="M98.431,26.217
			c0.02,0.24-0.02,0.45-0.09,0.64c-0.48,1.13-2.49,1.45-3.52,0.53c-1.21-1.09-1.38-2.89-1.51-4.51c-0.13-1.62-0.41-3.44-1.73-4.39
			c-0.79-0.58-1.87-0.76-2.48-1.52c-0.55-0.71-0.55-1.7-0.94-2.5c-0.67-1.35-2.38-1.92-3.87-1.72c-1.5,0.2-2.83,1.01-4.12,1.79
			c-4.61,2.82-9.51,5.71-14.92,5.83c-5.77,0.13-11.08-2.92-16.05-5.87c-0.11,1.2-0.22,2.4-0.33,3.6c-2.18,0.31-3.79,2.34-4.32,4.47
			c-0.53,2.14-0.81,5.24-0.48,7.42c-1.59-0.52-3-1.65-4.61-1.99c-0.21-0.05-0.42-0.08-0.64-0.09c-2.3-0.13-4.46,2-4.37,4.29
			c0.1,2.3,2.45,4.24,4.72,3.9c0.25,4.5,0.75,8.83,1,13.32c0.01,0.24,0.03,0.48,0.05,0.72c0.14,2.29,0.44,4.65,1.86,6.41
			c1.37,1.7,3.53,2.52,5.6,3.19c1.34,0.43,2.73,0.83,4.12,1.11c1.11,0.23,2.23,0.37,3.34,0.38c1.11,0.02,2.22-0.08,3.3-0.36
			c0.88,1.39,1.9,2.27,3.06,3.44c0.72,0.72,1.58,1.43,2.6,1.43c1.19,0,2.5-0.93,3.19-1.9c0.56-0.78,1.54-2.01,2.27-3.12
			c0.34-0.5,0.62-0.98,0.78-1.38"/>
		<path fill="none" stroke="#000000" stroke-linecap="round" stroke-linejoin="round" stroke-miterlimit="10" d="M97.751,27.877
			c0.12-0.04,0.25-0.07,0.37-0.09c1.8-0.4,3.81,0.51,4.81,2.08c1.06,1.68,1,3.96-0.01,5.68c-1.01,1.71-2.64,1.79-4.61,2.12
			c0.26,2.39,0.35,4.8,0.29,7.21c-0.03,1.35-0.12,2.71-0.25,4.06c-0.28,2.84-0.91,5.9-3.08,7.75c-1.46,1.26-3.42,1.76-5.31,2.16
			c-2.56,0.54-5.14,0.97-7.73,1.29c-3.23,0.4-6.49,0.63-9.75,0.67c-0.92,0.02-1.85,0.02-2.77,0.01"/>
		<path fill="none" stroke="#000000" stroke-linecap="round" stroke-linejoin="round" stroke-miterlimit="10" d="M51.731,61.207
			c0.12,3.79,0.26,7.64,1.4,11.26c1.15,3.62,3.46,7.04,6.9,8.66c0.49-0.92,0.98-1.83,1.47-2.75c1.07-2,2.33-4.16,4.48-4.89
			c0.12-0.04,0.25-0.08,0.37-0.11c1.69-0.41,3.53,0.16,4.96,1.17c1.54,1.09,2.69,2.62,3.81,4.14c-0.08-0.14-0.15-0.27-0.22-0.41
			c-0.07-0.11-0.13-0.23-0.19-0.34"/>
		<path fill="none" stroke="#000000" stroke-linecap="round" stroke-linejoin="round" stroke-miterlimit="10" d="M55.141,61.227
			c0.24,2.41,1.36,3.59,3.1,5.27c1.74,1.67,3.91,2.85,6.16,3.73c0.57,0.22,1.19,0.43,1.79,0.39c0.18,0,0.36-0.04,0.53-0.1
			c0.57-0.2,0.99-0.67,1.37-1.14c2.2-2.72,3.66-5.12,4.39-8.55"/>
		<path fill="none" stroke="#000000" stroke-linecap="round" stroke-linejoin="round" stroke-miterlimit="10" d="M82.261,60.437
			c-0.19,3-0.54,5.99-1.05,8.96c-0.3,1.76-0.67,3.54-1.48,5.13c-0.81,1.59-2.13,3-3.83,3.56c-0.15,0.04-0.36-0.03-0.44-0.12
			c-0.05-0.05-0.05-0.11,0.02-0.16"/>
		<path fill="none" stroke="#000000" stroke-linecap="round" stroke-linejoin="round" stroke-miterlimit="10" d="M98.711,44.877
			c6.38,0.26,12.76,0.12,19.12-0.41c0.07-0.01,0.15-0.01,0.22-0.02c-0.01,0.01-0.01,0.03-0.02,0.04c-1.55,3.03-2.7,6.32-2.75,9.72
			c-0.03,2.6,0.65,5.27,2.1,7.4c0.09,0.15,0.2,0.3,0.31,0.44c0.37,0.5,0.79,0.96,1.26,1.38c-2.94,0.79-5.81,1.8-8.59,3.04
			c-2.23,0.96-4.4,2.08-6.5,3.32"/>
		<path fill="none" stroke="#000000" stroke-linecap="round" stroke-linejoin="round" stroke-miterlimit="10" d="M40.211,50.137
			c-1.62,3.23-4.76,6.09-8.11,7.44c-3.35,1.34-7.03,1.69-10.63,1.54c-0.13-0.01-0.41-0.04-0.53-0.08c-0.5-0.14-0.55-0.31-0.64-0.21"
			/>
		<path fill="none" stroke="#000000" stroke-linecap="round" stroke-linejoin="round" stroke-miterlimit="10" d="M34.541,12.617
			c0.02-0.09,0.04-0.19,0.07-0.29c0.03-0.13,0.07-0.26,0.1-0.39"/>
		<path fill="none" stroke="#000000" stroke-linecap="round" stroke-linejoin="round" stroke-miterlimit="10" d="M35.701,77.777
			c0.06,0.02,0.1,0.05,0.13,0.09c0.06,0.09,0.06,0.22,0.01,0.34c-0.05,0.15-0.16,0.27-0.31,0.3c-0.34,0.05-0.65-0.19-0.9-0.42
			c-6.02-5.38-11.77-11.73-14.33-19.26c-0.48-1.41-0.84-2.86-1.08-4.35c-0.74-4.78-0.08-9.66,0.87-14.41
			c1.98-9.91,5.2-19.58,6.53-29.61c0.21-1.61,0.39-3.27,1.11-4.73c0.71-1.47,2.11-2.72,3.74-2.76c1.36-0.03,2.21,0.89,2.72,2.19
			c0.88,2.2,0.76,5.51,0.42,7.17"/>
		<path fill="none" stroke="#000000" stroke-linecap="round" stroke-linejoin="round" stroke-miterlimit="10" d="M35.941,74.677
			c-0.11,1.07-0.14,2.13-0.11,3.19c0,0.12,0,0.23,0.01,0.34c0.25,7.15,3.28,14.09,6.24,20.7c2.08,4.63,4.2,9.34,7.52,13.18
			c0.02,0.02,0.04,0.05,0.06,0.07c0.49-0.47,0.49-0.19,1.43-0.34"/>
		<path fill="none" stroke="#000000" stroke-linecap="round" stroke-linejoin="round" stroke-miterlimit="10" d="M34.281,5.667
			c-0.04-0.17-0.07-0.34-0.09-0.51c-0.2-1.44,0.24-3,1.37-3.92c1.25-1.04,3.34-1,4.37,0.25c0.88,1.05,0.83,2.57,0.74,3.95
			c-0.04,0.63-0.08,1.26-0.12,1.89"/>
		<path fill="none" stroke="#000000" stroke-linecap="round" stroke-linejoin="round" stroke-miterlimit="10" d="M49.661,112.157
			c12.68-0.27,24.66-1.51,37.24-3.14c5.71-0.74,11.44-1.62,16.9-3.47c2.67-0.91,5.33-2.09,7.29-4.12c0.71-0.74,1.25-1.61,1.62-2.55
			c1.71-4.31,0.09-10.25-3.36-13.43l-0.01-0.01"/>
		<path fill="none" stroke="#000000" stroke-linecap="round" stroke-linejoin="round" stroke-miterlimit="10" d="M110.461,66.687
			c-0.7,6.22-1.07,12.49-1.11,18.76c-0.03,2.87,0.02,5.75,0.14,8.62c0.33-0.79,0.65-1.59,0.97-2.38"/>
		<path fill="none" stroke="#000000" stroke-linecap="round" stroke-linejoin="round" stroke-miterlimit="10" d="M117.831,44.467
			c0.07,0.01,0.13,0.01,0.2,0.02c3.6,0.37,7.49,0.24,11.08,0.61c6.23,0.66,12.92,1.51,17.53,5.76c2.39,2.21,3.98,5.13,5.52,8
			c0.79,1.47,1.57,2.94,2.36,4.41c1.12,2.09,2.28,4.35,1.97,6.7c-0.3,2.35-2.82,4.52-4.98,3.54c0.69,1.72-1.01,3.76-2.86,3.74
			c-1.85-0.02-3.42-1.66-3.78-3.48c-0.76,1.61-2.92,2.38-4.53,1.62c-1.75-0.82-2.45-2.88-3.29-4.61
			c-3.37-6.91-11.98-10.68-19.36-8.73c-0.43,0.11-0.86,0.25-1.28,0.4c0.33-0.28,0.65-0.56,0.97-0.84c0.36-0.3,0.72-0.61,1.08-0.92"
			/>
		<path fill="none" stroke="#000000" stroke-linecap="round" stroke-linejoin="round" stroke-miterlimit="10" d="M83.521,77.927
			c0.58-0.16,1.16-0.32,1.74-0.48c1.19-0.33,2.39-0.66,3.59-0.99c0.82-0.23,1.69-0.46,2.51-0.21s1.49,1.17,1.15,1.95
			c-0.23,0.54-0.83,0.81-1.38,1.01c-2.45,0.89-5.04,1.37-7.64,1.42c0.01-0.62,0.02-1.23,0.03-1.85c0.64-0.2,1.29-0.39,1.94-0.59"/>
		<path fill="none" stroke="#000000" stroke-linecap="round" stroke-linejoin="round" stroke-miterlimit="10" d="M49.621,111.867
			c-0.01,0.07-0.01,0.15-0.02,0.22c-0.41,4.4-0.19,8.84,0.66,13.17c0.7,3.58,3.26,8.12,6.31,11.9c2.04,2.53,4.31,4.72,6.39,6.04
			c0.05,0.03,0.09,0.06,0.14,0.09"/>
		<path fill="none" stroke="#000000" stroke-linecap="round" stroke-linejoin="round" stroke-miterlimit="10" d="M112.511,98.667
			c0.07,0.07,0.14,0.14,0.2,0.21c5.54,5.75,7.69,14.57,5.39,22.22c-1.4,4.68-4.25,8.75-7.38,12.51c-0.46,0.55-0.92,1.09-1.39,1.63
			c-3.7,4.28-6.5,7.8-9.47,10.9c-3.45,3.6-7.12,6.64-12.68,9.61c-0.44,0.24-0.89,0.47-1.36,0.71c-0.4,0.2-2.57,1.12-3.69,2.03
			c-0.34,0.28-1.1,0.94-2.02,1.53"/>
		<path fill="none" stroke="#000000" stroke-linecap="round" stroke-linejoin="round" stroke-miterlimit="10" d="M54.301,159.097
			c-2.88,5.52-5.58,11.14-7.87,16.93c-0.15,0.35-0.28,0.71-0.42,1.06c0.27-0.35,0.54-0.71,0.81-1.06c0.22-0.28,0.43-0.56,0.64-0.84"
			/>
		<path fill="none" stroke="#000000" stroke-linecap="round" stroke-linejoin="round" stroke-miterlimit="10" d="M79.841,114.587
			c-3.44,4.67-6.28,9.73-9.12,14.78c-0.03,0.05-0.05,0.09-0.08,0.14c-0.27,0.49-0.55,0.97-0.82,1.46c-0.97,1.73-1.94,3.45-2.91,5.18
			c-1.32,2.35-2.64,4.7-3.95,7.05c-1.58,2.83-3.15,5.67-4.71,8.51c-1.33,2.44-2.66,4.9-3.95,7.38"/>
		<path fill="none" stroke="#000000" stroke-linecap="round" stroke-linejoin="round" stroke-miterlimit="10" d="M80.621,159.427
			c-0.17,0.2-0.34,0.39-0.51,0.59c0,0.01-0.01,0.01-0.01,0.01c-1.98,2.3-3.92,4.57-5.81,6.84c-4.91,5.84-9.56,11.68-14.05,18.11
			c-0.05,0.07-0.1,0.14-0.15,0.21c-0.04-0.66-0.09-1.33-0.13-2"/>
		<path fill="none" stroke="#000000" stroke-linecap="round" stroke-linejoin="round" stroke-miterlimit="10" d="M59.271,135.607
			c-0.82,0.47-1.34,0.96-2.09,1.18c2.92-1.63,5.8-3.35,8.63-5.15c0.73-0.47,1.51-1.11,1.93-1.84c0.3-0.51,0.41-1.07,0.2-1.64"/>
		<path fill="none" stroke="#000000" stroke-linecap="round" stroke-linejoin="round" stroke-miterlimit="10" d="M54.041,194.057
			c0.06,0.31,0.6,0.2,0.67-0.1c0.07-0.31-0.13-0.6-0.34-0.84c-2.03-2.41-11.81-7.59-15.87-4.64c-0.51,0.37-0.94,0.88-1.24,1.54
			c-1.88,4.08,12.98,8.34,16.18,9.26c1.04,0.3,2.16,0.57,3.17,0.19c1.83-0.69,2.31-3.01,2.5-4.96c0.26-2.62,1.25-6.37,1.13-9.53
			c-0.05-1.37-0.31-2.64-0.94-3.64c-1.94-3.09-8.42-4.79-11.7-5.24c-0.26-0.03-0.52-0.07-0.78-0.07c-0.13-0.01-0.26-0.01-0.39,0
			c-0.37,0.02-0.72,0.09-1.05,0.24c-0.7,0.34-1.15,1.02-1.57,1.66c-2.04,3.11-4.07,6.21-6.1,9.32"/>
		<path fill="none" stroke="#000000" stroke-linecap="round" stroke-linejoin="round" stroke-miterlimit="10" d="M54.301,159.087
			v0.01c-0.04,0.53,0.13,0.71,0,1.14c0.19,0.58,4.48,4.91,8.07,6.95c3.52,2,8.6,2.17,11.21-0.91"/>
		<path fill="none" stroke="#000000" stroke-linecap="round" stroke-linejoin="round" stroke-miterlimit="10" d="M71.321,129.887
			c10.92-2.05,22.83,4.59,26.83,14.96c0.15,0.41,0.35,0.86,0.77,0.99c0.17,0.05,0.35-0.03,0.48-0.15c0.18-0.18,0.25-0.44,0.04-0.58"
			/>
		<path fill="none" stroke="#000000" stroke-linecap="round" stroke-linejoin="round" stroke-miterlimit="10" d="M110.361,133.347
			c0.12,0.09,0.24,0.18,0.36,0.26c8.21,6,18,9.17,27.98,11.54c3.3,0.79,6.62,1.49,9.91,2.18c2.68,0.56,5.41,1.12,8.12,0.97
			c0.5-0.03,0.99-0.08,1.49-0.16c2.23-0.37,4.46-1.3,6.67-0.84c2.97,0.63,4.8,3.51,6.84,5.76c2.74,3.04,6.3,5.21,9.34,7.95
			c3.03,2.75,5.66,6.42,5.56,10.52c-0.1,4.09-4.06,8.13-8,7.02c-1.58-0.45-2.85-1.59-4.17-2.58c-5.57-4.23-12.24-5.53-19.2-6.2
			c-0.26-0.03-0.53-0.06-0.8-0.08c-4.62-0.41-8.46-0.48-12-0.5c-2.24-0.01-4.76-0.06-7.32-0.17c-5.29-0.24-10.72-0.77-13.97-1.82
			c-13.59-4.43-18.73-6.11-32.31-10.54c-0.84-0.27-1.11-0.44-1.68-0.91h-0.01"/>
		
			<line fill="none" stroke="#000000" stroke-linecap="round" stroke-linejoin="round" stroke-miterlimit="10" x1="63.961" y1="44.807" x2="63.961" y2="48.437"/>
		
			<line fill="none" stroke="#000000" stroke-linecap="round" stroke-linejoin="round" stroke-miterlimit="10" x1="68.341" y1="44.807" x2="68.341" y2="48.567"/>
		<path fill="none" stroke="#000000" stroke-linecap="round" stroke-linejoin="round" stroke-miterlimit="10" d="M69.451,33.687
			c-0.09-0.8,0.36-1.54,0.79-2.21c0.62-0.93,1.26-1.85,2.08-2.61c0.82-0.75,1.83-1.34,2.93-1.48c0.1-0.01,0.23-0.01,0.27,0.08
			c0.05,0.1-0.15,0.17-0.14,0.07"/>
		<path fill="none" stroke="#000000" stroke-linecap="round" stroke-linejoin="round" stroke-miterlimit="10" d="M64.391,34.567
			c-0.13-1.75-0.26-3.54-0.97-5.15c-0.7-1.61-2.1-3.04-3.84-3.28"/>
		<path fill="none" stroke="#000000" stroke-linecap="round" stroke-linejoin="round" stroke-miterlimit="10" d="M108.891,152.227
			c0.85,1.59,1.7,3.18,2.55,4.78"/>
		<path fill="none" stroke="#000000" stroke-linecap="round" stroke-linejoin="round" stroke-miterlimit="10" d="M138.671,145.257
			c2.35,4.18,2.24,9.33,1.22,14.02c-0.78,3.58-2.14,7.19-4.75,9.74c-0.08,0.08-0.16,0.16-0.24,0.24"/>
		<path fill="none" stroke="#000000" stroke-linecap="round" stroke-linejoin="round" stroke-miterlimit="10" d="M156.521,148.017
			c0.07,0.09,0.14,0.18,0.21,0.28c2.33,3.1,3.52,7.04,3.28,10.91c-0.24,3.94-1.97,7.77-4.75,10.56c-0.04,0.04-0.07,0.07-0.11,0.11"
			/>
		<path fill="none" stroke="#000000" stroke-linecap="round" stroke-linejoin="round" stroke-miterlimit="10" d="M180.131,166.797
			c1.22,3.09,0.17,6.92-2.44,8.97c-0.65,0.51-1.42,0.92-2.24,0.9"/>
		<path fill="none" stroke="#000000" stroke-linecap="round" stroke-linejoin="round" stroke-miterlimit="10" d="M3.291,145.387
			c-1.92,3-2.68,6.61-2.78,10.17c-0.09,3.26,0.37,6.61,1.9,9.49c1.59,3,4.26,5.33,7.22,6.98c5.4,3.02,12.04,3.91,17.92,1.99
			c5.87-1.93,10.81-6.77,12.44-12.74c1.29-4.73,0.5-9.85-1.4-14.37c-1.48-3.53-4.07-6.28-7.57-7.97c-6.98-3.37-13.5-3.5-20.18-0.06
			C6.911,140.447,4.571,143.387,3.291,145.387z"/>
	</g>
</g>
</svg>
