<?xml version="1.0" encoding="utf-8"?>
<!-- Generator: Adobe Illustrator 20.0.0, SVG Export Plug-In . SVG Version: 6.00 Build 0)  -->
<svg version="1.1" id="图层_2" xmlns="http://www.w3.org/2000/svg" xmlns:xlink="http://www.w3.org/1999/xlink" x="0px" y="0px"
	 viewBox="0 0 161.045 220.347" enable-background="new 0 0 161.045 220.347" xml:space="preserve">
<g id="XMLID_1_">
	<g>
		<path fill="#D6D7D7" d="M143.826,37.236c-0.07,5.15-1.99,10.16-4.2,14.85c-3.29,7.01-7.26,13.69-11.83,19.94
			c-14.94,20.37-35.83,35.46-56.36,50.19c-8.66,6.21-17.35,12.45-26.76,17.45c-6.84,3.64-14,6.4-21.4,8.55
			c0.36-0.59,0.76-1.16,1.2-1.71c5.49-3.05,10.69-6.6,15.77-10.35c10.53-5.64,20.51-12.42,28.65-21.14
			c2.74-2.93,5.26-6.07,8.09-8.92c12.83-12.91,31.29-19.06,44.05-32.05c5.39-5.49,9.62-12.12,12.34-19.31
			c1.58-4.19,2.67-8.58,4.52-12.65c0.12-0.27,0.25-0.54,0.38-0.81c1.04-2.15,2.39-4.22,4.04-5.95l1.47,0.12
			C143.826,36.046,143.846,36.646,143.826,37.236z"/>
		<path fill="#F4EEE1" d="M134.896,142.036c-10.93,3.44-22.2,5.81-33.6,7.07c-10.21,1.12-20.51,1.36-30.78,1.16
			c-1.9-0.04-4.1-0.29-5.49-1.4c0.19-3.38,0.1-6.81-0.3-10.27c-5.65,5.94-12.4,10.72-19.18,15.33c-7.22,4.9-14.4,9.83-23.1,9.27
			c-2.16,3.27-5.41,5.8-9.1,7.11c-2.87,1.01-6.23,1.23-8.83-0.34c-2.61-1.58-3.96-5.34-2.21-7.84l0.8-0.54
			c-2.31-2.1-3.37-5.69-1.99-8.55c0.3-0.62,1.33-1.14,1.5-0.47l0.76-0.28c-0.39-1.06-0.55-2.19-0.46-3.31
			c0.24-2.96,2.26-5.7,5.01-6.82c0.85,1.01,1.73,2,2.64,2.95c1.7,1.79,3.52,3.46,5.43,5.02c0.9-0.21,1.8-0.43,2.7-0.66
			c1.54-0.4,3.07-0.81,4.58-1.25c7.4-2.15,14.56-4.91,21.4-8.55c9.41-5,18.1-11.24,26.76-17.45c20.53-14.73,41.42-29.82,56.36-50.19
			c4.57-6.25,8.54-12.93,11.83-19.94c2.21-4.69,4.13-9.7,4.2-14.85c0.4,0.66,1.53,0.85,2.2,0.36c0.81-0.58,1.05-1.69,0.98-2.68
			c-0.07-0.92-0.34-1.8-0.77-2.6c-0.54-1.03-1.33-1.93-2.28-2.61c0.97-1.74,3.77-2.26,5.53-1.08c0.66,0.44,1.18,1.01,1.57,1.68
			c3.03-1.21,6.93,0.73,7.75,3.9c0.35,1.35,0.21,2.76,0.04,4.14c-2.12,16.72-8.84,32.84-19.23,46.11c-1.14,1.45-2.35,2.92-2.84,4.7
			c-0.53,1.94-0.14,4,0.26,5.97c1.57,7.58,3.56,15.04,5.51,22.54c1.71,6.56-1.29,10.56-1.87,17.03c-0.15,0.61-0.28,1.22-0.4,1.83
			c-0.09,0.48-0.17,0.97-0.24,1.46l0.71,2.13C138.806,140.766,136.856,141.416,134.896,142.036z"/>
		<path fill="#FDFDFE" d="M26.816,144.066c3.11-2.71,6.9-4.51,10.57-6.4c0.96-0.49,1.91-0.99,2.86-1.51
			c-5.08,3.75-10.28,7.3-15.77,10.35C25.186,145.626,25.976,144.806,26.816,144.066z"/>
		<path fill="#FDFDFE" d="M134.456,33.436c-0.98-0.27-1.82-0.76-2.04-1.71c-0.39-1.61,1.43-2.85,3.03-3.27
			c2.44-0.63,5.12-0.56,7.38,0.56c0.39,0.2,0.77,0.43,1.13,0.69c0.95,0.68,1.74,1.58,2.28,2.61c-1.46,0.77-2.76,1.81-3.92,3.01
			c-1.65,1.73-3,3.8-4.04,5.95c-0.13,0.27-0.26,0.54-0.38,0.81l-0.76-0.34c0.73-1.67,1.5-3.29,2.33-4.82
			c0.8-1.46-1.23-2.87-2.88-3.1C135.906,33.736,135.146,33.636,134.456,33.436z"/>
		<path fill="#FDFDFE" d="M97.446,68.526c8.49-7.04,16.74-14.36,24.59-22.1c0.22,0.17,0.54,0.27,0.67-0.05
			c0.08-0.21,0.08-0.43,0.02-0.64c4.03-3.97,7.95-8.07,11.73-12.3c0.69,0.2,1.45,0.3,2.13,0.39c1.65,0.23,3.68,1.64,2.88,3.1
			c-0.83,1.53-1.6,3.15-2.33,4.82l0.76,0.34c-1.85,4.07-2.94,8.46-4.52,12.65c-2.72,7.19-6.95,13.82-12.34,19.31
			c-12.76,12.99-31.22,19.14-44.05,32.05c-2.83,2.85-5.35,5.99-8.09,8.92c-8.14,8.72-18.12,15.5-28.65,21.14
			c-0.95,0.52-1.9,1.02-2.86,1.51c-3.67,1.89-7.46,3.69-10.57,6.4c-0.84,0.74-1.63,1.56-2.34,2.44c-1.89,1.06-3.81,2.05-5.78,2.96
			c-0.9,0.23-1.8,0.45-2.7,0.66c-1.91-1.56-3.73-3.23-5.43-5.02c0.06-0.08,0.11-0.15,0.15-0.23c7.26-12.19,16.74-23.05,27.85-31.87
			c3.62-2.87,7.41-5.53,11.17-8.2c0.14-0.1,0.28-0.2,0.42-0.3c8.63-6.13,17.16-12.39,25.58-18.8
			C83.076,80.126,90.346,74.416,97.446,68.526z"/>
		<path fill="#FDFDFE" d="M24.476,146.506c-0.44,0.55-0.84,1.12-1.2,1.71c-1.51,0.44-3.04,0.85-4.58,1.25
			C20.666,148.556,22.586,147.566,24.476,146.506z"/>
		<path fill="#FDFDFE" d="M143.826,37.236c0.02-0.59,0-1.19-0.04-1.79l-1.47-0.12c1.16-1.2,2.46-2.24,3.92-3.01
			c0.43,0.8,0.7,1.68,0.77,2.6c0.07,0.99-0.17,2.1-0.98,2.68C145.356,38.086,144.226,37.896,143.826,37.236z"/>
		<path fill="#D6D7D7" d="M148.396,137.916l-1.32-2.44c0.13-0.58,0.25-1.17,0.38-1.75c1.62-0.65,3.28-1.19,4.97-1.61
			c0.55-0.13,1.1-0.26,1.66-0.37c2.09-0.42,4.65-0.48,5.89,1.25c1.59,2.23-0.43,5.28-2.62,6.93c-4.21,3.13-9.5,4.77-14.74,4.55
			c-0.03-0.09-0.07-0.18-0.12-0.27c-0.33-0.74-0.66-1.49-1-2.24l0.66-1.4C144.126,139.446,146.226,138.556,148.396,137.916z"/>
		<path fill="#D6D7D7" d="M158.556,180.786l-0.36,0.17c-0.23,0.35-4.6,0.83-4.84,1.18c-2.2,0.28-3.41,0.43-4.61,0.46
			c-1.41,0.05-2.8-0.08-5.78-0.36c1.74-7.96,0.94-16.3,0.12-24.43c-0.53-5.28-1.06-10.56-1.59-15.84c0.34,0.75,0.67,1.5,1,2.24
			c-0.08,0.09-0.16,0.18-0.23,0.26c0.12,0.01,0.23,0.01,0.35,0.01C148.066,156.656,153.036,168.566,158.556,180.786z"/>
		<path fill="#D6D7D7" d="M147.456,133.726c-2.07,0.83-4.08,1.84-5.97,3.03l-1.21-0.23c0.12-0.61,0.25-1.22,0.4-1.83
			c1.21-4.89,3.53-9.5,6.76-13.37c0.67-0.79,1.42-1.58,2.41-1.88c2.2-0.64,4.37,1.67,4.48,3.96c0.12,2.3-1.13,4.41-2.33,6.36
			l0.43,2.35C150.736,132.536,149.076,133.076,147.456,133.726z"/>
		<path fill="#FDEEE5" d="M150.026,197.486c1.38,2.49,2.91,4.66,2.71,7.5c-0.2,2.98-3.61,4.66-6.58,4.88
			c-2.97,0.23-6.1-0.35-8.86,0.8c-1.69,0.7-3.05,1.99-4.56,3.02c-1.51,1.03-3.37,1.83-5.14,1.38c-1.77-0.46-3.09-2.68-2.08-4.21
			c-0.94,0.73-2.47,0.51-3.18-0.44c-0.71-0.96-0.47-2.48,0.49-3.17c0.63-0.46,1.45-0.56,2.15-0.89c0.7-0.32,1.35-1.09,1.07-1.82
			c-0.99-0.01-1.99-0.21-2.9-0.61c-0.76-2.02,1.69-3.61,3.39-4.95c3.16-2.48,4.55-6.97,3.42-10.8c1.33-0.15,2.67-0.31,4-0.47
			c3.05-0.37,6.68-1.18,7.68-4.08c-0.19,0.82,1.1-0.5,0.92,0.32c0.15-0.57,0.29-1.14,0.41-1.71c2.98,0.28,4.37,0.41,5.78,0.36v0.01
			c-0.12,1.32-0.23,3.43-0.25,3.91c-0.09,1.67-0.36,2.34-0.35,2.82C148.236,192.866,148.696,195.086,150.026,197.486z"/>
		<path fill="#D6D7D7" d="M147.076,135.476l1.32,2.44c-2.17,0.64-4.27,1.53-6.24,2.65l-0.27-0.83c-0.38,0.13-0.76,0.25-1.14,0.38
			l-0.71-2.13c0.07-0.49,0.15-0.98,0.24-1.46l1.21,0.23c1.89-1.19,3.9-2.2,5.97-3.03
			C147.326,134.306,147.206,134.896,147.076,135.476z"/>
		<path fill="#FFFEFE" d="M142.966,182.236c-0.12,0.57-0.26,1.14-0.41,1.71c0.18-0.82-1.11,0.5-0.92-0.32
			c-1,2.9-4.63,3.71-7.68,4.08c-1.33,0.16-2.67,0.32-4,0.47c-7.14,0.85-14.27,1.7-21.41,2.55c-1.92,0.23-3.84,0.46-5.78,0.67
			c-13.63,1.5-27.68,2.36-40.56-1.05c-3.76-1-7.41-2.36-10.93-4.17c7.79-11.35,12.98-23.97,13.75-37.31
			c1.39,1.11,3.59,1.36,5.49,1.4c10.27,0.2,20.57-0.04,30.78-1.16c11.4-1.26,22.67-3.63,33.6-7.07c1.96-0.62,3.91-1.27,5.85-1.92
			c0.38-0.13,0.76-0.25,1.14-0.38l0.27,0.83l-0.66,1.4c0.53,5.28,1.06,10.56,1.59,15.84
			C143.906,165.936,144.706,174.276,142.966,182.236z"/>
		<path fill="#DCA564" d="M122.036,46.426c-7.85,7.74-16.1,15.06-24.59,22.1c-0.94-4.92-1.98-9.83-3.1-14.71
			c-1.74-7.59-3.7-15.16-6.53-22.42c-0.82-2.09-1.71-4.15-2.8-6.11c-1.57-2.8-3.56-5.36-5.87-7.58c11.12-1.67,21.89-5.78,32.44-9.86
			c1.47-0.57,3.07-1.25,3.85-2.58c0.99,1.94,1.49,4.17,1.94,6.33c2.23,10.8,3.86,21.72,4.89,32.7c0.05,0.49,0.35,0.97,0.46,1.44
			C122.496,45.986,122.266,46.216,122.036,46.426z"/>
		<path fill="#322C26" d="M79.146,17.706c-2.85,0.43-5.71,0.7-8.6,0.77c-6.45,0.15-12.92-0.71-19.35-0.13
			c-0.44,0.04-0.89,0.09-1.26,0.33c-0.36,0.22-0.6,0.59-0.83,0.94c-1.85,2.87-3.71,5.74-5.56,8.61c0.04-1.31,0.09-2.63,0.13-3.94
			c0.06-1.58,0.13-3.22,0.85-4.63c1.94-3.77,7.25-3.99,10.6-6.56c1.92-1.48,3.23-3.76,5.45-4.72c2.43-1.05,5.2-0.23,7.82,0.17
			c2.62,0.41,5.83,0.07,7.08-2.27c0.73-1.38,2.68-1.55,4.18-1.1c1.49,0.46,2.87,1.36,4.43,1.5c3.49,0.33,6.17-3.11,9.55-4.04
			c3.94-1.08,8.7,1.24,11.97-1.2c2.5-1.86,6.29-0.75,8.34,1.59c0.6,0.68,1.09,1.44,1.49,2.24c-0.78,1.33-2.38,2.01-3.85,2.58
			C101.036,11.926,90.266,16.036,79.146,17.706z"/>
		<path fill="#FDEEE5" d="M102.766,191.396c1.08,2.81-0.38,6.11-1.98,8.78c-1.72,2.89-3.68,6.17-2.72,9.4
			c0.47,1.6,1.64,2.99,1.76,4.65c0.15,2.12-1.51,4.03-3.47,4.85c-1.96,0.82-4.16,0.79-6.28,0.76c-12.46-0.23-24.93-0.46-37.39-0.68
			c-0.05-1.2-0.1-2.4-0.15-3.59c-1.79-0.21-3.54-0.84-5.05-1.82c-0.57-0.37-1.15-0.84-1.29-1.5c-0.4-1.9,2.69-2.51,3.6-4.23
			c0.86-1.61-0.3-4.12,1.2-5.16c0.53-0.36,1.21-0.38,1.85-0.38c2.41-0.01,4.81-0.03,7.21-0.04c0.7-3.98,1.41-7.96,2.11-11.94
			l0.04-0.15C75.086,193.756,89.136,192.896,102.766,191.396z"/>
		<path fill="#F4EEE1" d="M41.436,92.026c0.16-1.65,0.68-3.25,1.62-4.66c2.79-4.17,1.83-10.4-2.08-13.54
			c-2.78-2.23,1.22-6.36,1.35-9.92c0.41-11.9,0.81-23.78,1.22-35.68c1.85-2.87,3.71-5.74,5.56-8.61c0.23-0.35,0.47-0.72,0.83-0.94
			c0.37-0.24,0.82-0.29,1.26-0.33c6.43-0.58,12.9,0.28,19.35,0.13c2.89-0.07,5.75-0.34,8.6-0.77c2.31,2.22,4.3,4.78,5.87,7.58
			c1.09,1.96,1.98,4.02,2.8,6.11c2.83,7.26,4.79,14.83,6.53,22.42c1.12,4.88,2.16,9.79,3.1,14.71c-7.1,5.89-14.37,11.6-21.71,17.18
			c-8.42,6.41-16.95,12.67-25.58,18.8c-0.14,0.1-0.28,0.2-0.42,0.3C44.366,103.396,40.926,97.446,41.436,92.026z M61.296,43.376
			c0.98-2.16,0.85-4.87-0.62-6.73c-1.26-1.58-3.53-2.34-5.43-1.75c-2.89-0.06-5.68,2.7-5.39,5.64c0.09,0.97,0.54,1.99,1.42,2.41
			c2.23,1.06,4.77-2.37,7-1.31C59.366,42.156,60.136,43.686,61.296,43.376z"/>
		<path fill="#322C26" d="M55.246,34.896c1.9-0.59,4.17,0.17,5.43,1.75c1.47,1.86,1.6,4.57,0.62,6.73
			c-1.16,0.31-1.93-1.22-3.02-1.74c-2.23-1.06-4.77,2.37-7,1.31c-0.88-0.42-1.33-1.44-1.42-2.41
			C49.566,37.596,52.356,34.836,55.246,34.896z"/>
	</g>
	<g>
		<path fill="none" stroke="#000000" stroke-linecap="round" stroke-linejoin="round" stroke-miterlimit="10" d="M50.076,104.886
			c-0.12-0.03-0.23-0.05-0.34-0.08c-5.37-1.41-8.81-7.36-8.3-12.78c0.16-1.65,0.68-3.25,1.62-4.66c2.79-4.17,1.83-10.4-2.08-13.54
			c-2.78-2.23,1.22-6.36,1.35-9.92c0.41-11.9,0.81-23.78,1.22-35.68c0.04-1.31,0.09-2.63,0.13-3.94c0.06-1.58,0.13-3.22,0.85-4.63
			c1.94-3.77,7.25-3.99,10.6-6.56c1.92-1.48,3.23-3.76,5.45-4.72c2.43-1.05,5.2-0.23,7.82,0.17c2.62,0.41,5.83,0.07,7.08-2.27
			c0.73-1.38,2.68-1.55,4.18-1.1c1.49,0.46,2.87,1.36,4.43,1.5c3.49,0.33,6.17-3.11,9.55-4.04c3.94-1.08,8.7,1.24,11.97-1.2
			c2.5-1.86,6.29-0.75,8.34,1.59c0.6,0.68,1.09,1.44,1.49,2.24c0.99,1.94,1.49,4.17,1.94,6.33c2.23,10.8,3.86,21.72,4.89,32.7
			c0.05,0.49,0.35,0.97,0.46,1.44c0.06,0.21,0.06,0.43-0.02,0.64c-0.13,0.32-0.45,0.22-0.67,0.05c-0.24-0.2-0.36-0.48,0.01-0.41"/>
		<path fill="none" stroke="#000000" stroke-linecap="round" stroke-linejoin="round" stroke-miterlimit="10" d="M55.246,34.896
			c-0.32,0.1-0.64,0.24-0.93,0.42"/>
		<path fill="none" stroke="#000000" stroke-linecap="round" stroke-linejoin="round" stroke-miterlimit="10" d="M55.246,34.896
			c-2.89-0.06-5.68,2.7-5.39,5.64c0.09,0.97,0.54,1.99,1.42,2.41c2.23,1.06,4.77-2.37,7-1.31c1.09,0.52,1.86,2.05,3.02,1.74
			c0.98-2.16,0.85-4.87-0.62-6.73C59.416,35.066,57.146,34.306,55.246,34.896z"/>
		<path fill="none" stroke="#000000" stroke-linecap="round" stroke-linejoin="round" stroke-miterlimit="10" d="M56.106,34.996
			c-0.29-0.06-0.58-0.09-0.86-0.1"/>
		<path fill="none" stroke="#000000" stroke-linecap="round" stroke-linejoin="round" stroke-miterlimit="10" d="M47.746,54.656
			c1.23,2.7,4.32,4.42,7.26,4.05c2.94-0.37,5.5-2.82,6.01-5.74"/>
		<path fill="none" stroke="#000000" stroke-linecap="round" stroke-linejoin="round" stroke-miterlimit="10" d="M97.516,48.166
			c-0.49-0.52-0.31-1.36-0.01-2.01c2.02-4.33,8.6-5.5,12.08-2.23c3.48,3.27,2.81,9.78-1.19,12.39c-0.27,0.18-0.67,0.32-0.88,0.08
			c-0.21-0.25,0.43-0.55,0.36-0.23"/>
		<path fill="none" stroke="#000000" stroke-linecap="round" stroke-linejoin="round" stroke-miterlimit="10" d="M43.686,74.386
			c1.86,1.37,4.88,0.66,5.94-1.4"/>
		<path fill="none" stroke="#000000" stroke-linecap="round" stroke-linejoin="round" stroke-miterlimit="10" d="M41.116,91.986
			c0.11,0.02,0.21,0.03,0.32,0.04c7.72,0.99,15.85-3.27,19.4-10.18"/>
		<path fill="none" stroke="#000000" stroke-linecap="round" stroke-linejoin="round" stroke-miterlimit="10" d="M143.686,36.816
			c0.02,0.16,0.07,0.3,0.14,0.42c0.4,0.66,1.53,0.85,2.2,0.36c0.81-0.58,1.05-1.69,0.98-2.68c-0.07-0.92-0.34-1.8-0.77-2.6
			c-0.54-1.03-1.33-1.93-2.28-2.61c-0.36-0.26-0.74-0.49-1.13-0.69c-2.26-1.12-4.94-1.19-7.38-0.56c-1.6,0.42-3.42,1.66-3.03,3.27
			c0.22,0.95,1.06,1.44,2.04,1.71c0.69,0.2,1.45,0.3,2.13,0.39c1.65,0.23,3.68,1.64,2.88,3.1c-0.83,1.53-1.6,3.15-2.33,4.82
			c-3.55,8-6.45,17.25-12.11,23.3c-2.14,2.28-4.54,4.45-5.71,7.35"/>
		<path fill="none" stroke="#000000" stroke-linecap="round" stroke-linejoin="round" stroke-miterlimit="10" d="M17.596,149.976
			c0.37-0.17,0.74-0.33,1.1-0.51c1.97-0.91,3.89-1.9,5.78-2.96c5.49-3.05,10.69-6.6,15.77-10.35c3.11-2.29,6.18-4.66,9.24-7.01
			c2.55-1.96,5.09-3.93,7.64-5.89c4.03-3.1,8.1-6.25,11.18-10.29"/>
		<path fill="none" stroke="#000000" stroke-linecap="round" stroke-linejoin="round" stroke-miterlimit="10" d="M135.016,32.816
			c-0.18,0.21-0.37,0.41-0.56,0.62c-3.78,4.23-7.7,8.33-11.73,12.3c-0.23,0.25-0.46,0.48-0.69,0.69
			c-7.85,7.74-16.1,15.06-24.59,22.1c-7.1,5.89-14.37,11.6-21.71,17.18c-8.42,6.41-16.95,12.67-25.58,18.8
			c-0.14,0.1-0.28,0.2-0.42,0.3c-3.76,2.67-7.55,5.33-11.17,8.2c-11.11,8.82-20.59,19.68-27.85,31.87
			c-0.04,0.08-0.09,0.15-0.15,0.23c-0.34,0.56-0.82,1.12-1.46,1.11c-0.74-0.01-1-1.4-0.26-1.36"/>
		<path fill="none" stroke="#000000" stroke-linecap="round" stroke-linejoin="round" stroke-miterlimit="10" d="M143.666,30.506
			c0.06-0.29,0.16-0.55,0.29-0.8c0.97-1.74,3.77-2.26,5.53-1.08c0.66,0.44,1.18,1.01,1.57,1.68c0.83,1.36,1.13,3.09,1.05,4.71"/>
		<path fill="none" stroke="#000000" stroke-linecap="round" stroke-linejoin="round" stroke-miterlimit="10" d="M150.986,30.336
			c0.02-0.01,0.05-0.02,0.07-0.03c3.03-1.21,6.93,0.73,7.75,3.9c0.35,1.35,0.21,2.76,0.04,4.14c-2.12,16.72-8.84,32.84-19.23,46.11
			c-1.14,1.45-2.35,2.92-2.84,4.7c-0.53,1.94-0.14,4,0.26,5.97c1.57,7.58,3.56,15.04,5.51,22.54c1.71,6.56-1.29,10.56-1.87,17.03
			c-0.02,0.26-0.04,0.53-0.06,0.8"/>
		<path fill="none" stroke="#000000" stroke-linecap="round" stroke-linejoin="round" stroke-miterlimit="10" d="M114.436,97.546
			c0.94,6.9,1.88,13.79,2.81,20.68c1.24,9.06,2.44,18.51-0.5,27.17c-0.06-0.8-0.12-1.6-0.18-2.41"/>
		<path fill="none" stroke="#000000" stroke-linecap="round" stroke-linejoin="round" stroke-miterlimit="10" d="M140.036,137.986
			c0.07-0.49,0.15-0.98,0.24-1.46c0.12-0.61,0.25-1.22,0.4-1.83c1.21-4.89,3.53-9.5,6.76-13.37c0.67-0.79,1.42-1.58,2.41-1.88
			c2.2-0.64,4.37,1.67,4.48,3.96c0.12,2.3-1.13,4.41-2.33,6.36c0.21-0.42,0.41-0.85,0.62-1.28"/>
		<path fill="none" stroke="#000000" stroke-linecap="round" stroke-linejoin="round" stroke-miterlimit="10" d="M149.136,125.996
			c-0.55,2.58-1.12,5.15-1.68,7.73c-0.13,0.58-0.25,1.17-0.38,1.75"/>
		<path fill="none" stroke="#000000" stroke-linecap="round" stroke-linejoin="round" stroke-miterlimit="10" d="M141.486,136.756
			c1.89-1.19,3.9-2.2,5.97-3.03c1.62-0.65,3.28-1.19,4.97-1.61c0.55-0.13,1.1-0.26,1.66-0.37c2.09-0.42,4.65-0.48,5.89,1.25
			c1.59,2.23-0.43,5.28-2.62,6.93c-4.21,3.13-9.5,4.77-14.74,4.55c-0.12,0-0.23,0-0.35-0.01c0.07-0.08,0.15-0.17,0.23-0.26
			c0.2-0.24,0.41-0.48,0.62-0.72"/>
		<path fill="none" stroke="#000000" stroke-linecap="round" stroke-linejoin="round" stroke-miterlimit="10" d="M150.596,137.376
			c-0.74,0.15-1.47,0.33-2.2,0.54c-2.17,0.64-4.27,1.53-6.24,2.65"/>
		<path fill="none" stroke="#000000" stroke-linecap="round" stroke-linejoin="round" stroke-miterlimit="10" d="M6.746,156.516
			c-1.57-0.96-2.76-2.5-3.37-4.23c-0.39-1.06-0.55-2.19-0.46-3.31c0.24-2.96,2.26-5.7,5.01-6.82c0.85,1.01,1.73,2,2.64,2.95
			c1.7,1.79,3.52,3.46,5.43,5.02c0.9-0.21,1.8-0.43,2.7-0.66c1.54-0.4,3.07-0.81,4.58-1.25c7.4-2.15,14.56-4.91,21.4-8.55
			c9.41-5,18.1-11.24,26.76-17.45c20.53-14.73,41.42-29.82,56.36-50.19c4.57-6.25,8.54-12.93,11.83-19.94
			c2.21-4.69,4.13-9.7,4.2-14.85c0.02-0.59,0-1.19-0.04-1.79"/>
		<path fill="none" stroke="#000000" stroke-linecap="round" stroke-linejoin="round" stroke-miterlimit="10" d="M2.616,152.566
			c-0.17-0.67-1.2-0.15-1.5,0.47c-1.38,2.86-0.32,6.45,1.99,8.55c0.96,0.88,2.14,1.49,3.45,1.68"/>
		<path fill="none" stroke="#000000" stroke-linecap="round" stroke-linejoin="round" stroke-miterlimit="10" d="M2.306,162.126
			c-1.75,2.5-0.4,6.26,2.21,7.84c2.6,1.57,5.96,1.35,8.83,0.34c3.69-1.31,6.94-3.84,9.1-7.11c8.7,0.56,15.88-4.37,23.1-9.27
			c6.78-4.61,13.53-9.39,19.18-15.33c0.4,3.46,0.49,6.89,0.3,10.27c-0.77,13.34-5.96,25.96-13.75,37.31
			c3.52,1.81,7.17,3.17,10.93,4.17c12.88,3.41,26.93,2.55,40.56,1.05c1.94-0.21,3.86-0.44,5.78-0.67c7.14-0.85,14.27-1.7,21.41-2.55
			c1.33-0.15,2.67-0.31,4-0.47c3.05-0.37,6.68-1.18,7.68-4.08c-0.19,0.82,1.1-0.5,0.92,0.32c0.15-0.57,0.29-1.14,0.41-1.71
			c1.74-7.96,0.94-16.3,0.12-24.43c-0.53-5.28-1.06-10.56-1.59-15.84c0.34,0.75,0.67,1.5,1,2.24c0.05,0.09,0.09,0.18,0.12,0.27
			c5.45,12.18,10.42,24.09,15.94,36.31"/>
		<path fill="none" stroke="#000000" stroke-linecap="round" stroke-linejoin="round" stroke-miterlimit="10" d="M63.956,147.486
			c0.25,0.57,0.61,1.03,1.07,1.38c1.39,1.11,3.59,1.36,5.49,1.4c10.27,0.2,20.57-0.04,30.78-1.16c11.4-1.26,22.67-3.63,33.6-7.07
			c1.96-0.62,3.91-1.27,5.85-1.92c0.38-0.13,0.76-0.25,1.14-0.38"/>
		<path fill="none" stroke="#000000" stroke-linecap="round" stroke-linejoin="round" stroke-miterlimit="10" d="M142.346,181.506
			c-0.1-0.28-0.59,0.04-0.47,0.32c0.11,0.28,0.47,0.35,0.78,0.38c0.11,0.01,0.21,0.02,0.31,0.03c2.98,0.28,4.37,0.41,5.78,0.36
			c1.2-0.03,2.41-0.18,4.61-0.46c0.24-0.35,4.61-0.83,4.84-1.18"/>
		<path fill="none" stroke="#000000" stroke-linecap="round" stroke-linejoin="round" stroke-miterlimit="10" d="M62.166,190.496
			c-0.7,3.98-1.41,7.96-2.11,11.94c-2.4,0.01-4.8,0.03-7.21,0.04c-0.64,0-1.32,0.02-1.85,0.38c-1.5,1.04-0.34,3.55-1.2,5.16
			c-0.91,1.72-4,2.33-3.6,4.23c0.14,0.66,0.72,1.13,1.29,1.5c1.51,0.98,3.26,1.61,5.05,1.82c0.05,1.19,0.1,2.39,0.15,3.59
			c12.46,0.22,24.93,0.45,37.39,0.68c2.12,0.03,4.32,0.06,6.28-0.76c1.96-0.82,3.62-2.73,3.47-4.85c-0.12-1.66-1.29-3.05-1.76-4.65
			c-0.96-3.23,1-6.51,2.72-9.4c1.6-2.67,3.06-5.97,1.98-8.78c-0.08-0.23-0.19-0.46-0.32-0.69"/>
		<path fill="none" stroke="#000000" stroke-linecap="round" stroke-linejoin="round" stroke-miterlimit="10" d="M129.786,187.626
			c0.07,0.18,0.12,0.36,0.17,0.55c1.13,3.83-0.26,8.32-3.42,10.8c-1.7,1.34-4.15,2.93-3.39,4.95c0.91,0.4,1.91,0.6,2.9,0.61
			c0.28,0.73-0.37,1.5-1.07,1.82c-0.7,0.33-1.52,0.43-2.15,0.89c-0.96,0.69-1.2,2.21-0.49,3.17c0.71,0.95,2.24,1.17,3.18,0.44
			c-1.01,1.53,0.31,3.75,2.08,4.21c1.77,0.45,3.63-0.35,5.14-1.38c1.51-1.03,2.87-2.32,4.56-3.02c2.76-1.15,5.89-0.57,8.86-0.8
			c2.97-0.22,6.38-1.9,6.58-4.88c0.2-2.84-1.33-5.01-2.71-7.5c-1.33-2.4-1.79-4.62-1.88-8.15c-0.01-0.48,0.26-1.15,0.35-2.82
			c0.02-0.48,0.13-2.59,0.25-3.91"/>
		<path fill="none" stroke="#000000" stroke-linecap="round" stroke-linejoin="round" stroke-miterlimit="10" d="M43.376,28.486
			c0.06-0.09,0.11-0.17,0.17-0.26c1.85-2.87,3.71-5.74,5.56-8.61c0.23-0.35,0.47-0.72,0.83-0.94c0.37-0.24,0.82-0.29,1.26-0.33
			c6.43-0.58,12.9,0.28,19.35,0.13c2.89-0.07,5.75-0.34,8.6-0.77c11.12-1.67,21.89-5.78,32.44-9.86c1.47-0.57,3.07-1.25,3.85-2.58
			c0.05-0.09,0.1-0.19,0.15-0.29"/>
	</g>
</g>
<path fill="none" stroke="#000000" stroke-linecap="round" stroke-linejoin="round" stroke-miterlimit="10" d="M13.168,147.9
	c8.575-5.561,16.805-11.654,24.627-18.232"/>
<path fill="none" stroke="#000000" stroke-linecap="round" stroke-linejoin="round" stroke-miterlimit="10" d="M134.934,33.192
	c-2.59,10.12-9.193,19.153-18.049,24.693"/>
</svg>
